<svg width="24" height="24" viewBox="0 0 24 24" xmlns="http://www.w3.org/2000/svg" id="shield-check"><path d="M20.25,7A1,1,0,0,0,19.19,6H19a6.89,6.89,0,0,1-6.09-3.53l0-.06a.93.93,0,0,0-.13-.15.87.87,0,0,0-.15-.13l-.07-.06-.1,0L12.24,2l-.19,0-.18,0a.76.76,0,0,0-.2.06l-.1,0-.06,0a.93.93,0,0,0-.15.13.65.65,0,0,0-.13.16.34.34,0,0,0-.06.06A7,7,0,0,1,5,6.05H4.87A1,1,0,0,0,3.74,7c0,1,0,1.95,0,3v.42a11.53,11.53,0,0,0,8,11.55A.75.75,0,0,0,12,22a1.07,1.07,0,0,0,.25,0,11.61,11.61,0,0,0,8.06-11.53C20.31,9.23,20.31,8.09,20.25,7Zm-4,3.75-4.62,4.62a.89.89,0,0,1-.38.23,1,1,0,0,1-.65.25,1,1,0,0,1-.7-.29l-2-2a1,1,0,1,1,1.41-1.41l1.32,1.32,4.17-4.17a1,1,0,0,1,1.41,1.41Z" data-name="shield 7"></path></svg>