<svg width="64" height="64" viewBox="0 0 64 64" fill="none" xmlns="http://www.w3.org/2000/svg">
<path d="M17 13V57V61H55V13H51H17Z" fill="white"/>
<path d="M51 9H13V57H51V9Z" fill="#A8DF87"/>
<path d="M21 38C22.1046 38 23 37.1046 23 36C23 34.8954 22.1046 34 21 34C19.8954 34 19 34.8954 19 36C19 37.1046 19.8954 38 21 38Z" fill="white"/>
<path d="M21 28C22.1046 28 23 27.1046 23 26C23 24.8954 22.1046 24 21 24C19.8954 24 19 24.8954 19 26C19 27.1046 19.8954 28 21 28Z" fill="white"/>
<path d="M21 48C22.1046 48 23 47.1046 23 46C23 44.8954 22.1046 44 21 44C19.8954 44 19 44.8954 19 46C19 47.1046 19.8954 48 21 48Z" fill="white"/>
<path d="M21 39C19.346 39 18 37.654 18 36C18 34.346 19.346 33 21 33C22.654 33 24 34.346 24 36C24 37.654 22.654 39 21 39ZM21 35C20.448 35 20 35.449 20 36C20 36.551 20.448 37 21 37C21.552 37 22 36.551 22 36C22 35.449 21.552 35 21 35Z" fill="#231F20"/>
<path d="M21 29C19.346 29 18 27.654 18 26C18 24.346 19.346 23 21 23C22.654 23 24 24.346 24 26C24 27.654 22.654 29 21 29ZM21 25C20.448 25 20 25.449 20 26C20 26.551 20.448 27 21 27C21.552 27 22 26.551 22 26C22 25.449 21.552 25 21 25Z" fill="#231F20"/>
<path d="M21 49C19.346 49 18 47.654 18 46C18 44.346 19.346 43 21 43C22.654 43 24 44.346 24 46C24 47.654 22.654 49 21 49ZM21 45C20.448 45 20 45.449 20 46C20 46.551 20.448 47 21 47C21.552 47 22 46.551 22 46C22 45.449 21.552 45 21 45Z" fill="#231F20"/>
<path d="M45 27H29C28.447 27 28 26.552 28 26C28 25.448 28.447 25 29 25H45C45.553 25 46 25.448 46 26C46 26.552 45.553 27 45 27Z" fill="#231F20"/>
<path d="M45 37H29C28.447 37 28 36.552 28 36C28 35.448 28.447 35 29 35H45C45.553 35 46 35.448 46 36C46 36.552 45.553 37 45 37Z" fill="#231F20"/>
<path d="M45 47H29C28.447 47 28 46.552 28 46C28 45.448 28.447 45 29 45H45C45.553 45 46 45.448 46 46C46 46.552 45.553 47 45 47Z" fill="#231F20"/>
<path d="M55 12H52V9C52 8.448 51.553 8 51 8H26V6C26 3.794 24.206 2 22 2C19.794 2 18 3.794 18 6V8H13C12.447 8 12 8.448 12 9V57C12 57.552 12.447 58 13 58H16V61C16 61.552 16.447 62 17 62H55C55.553 62 56 61.552 56 61V13C56 12.448 55.553 12 55 12ZM20 6C20 4.897 20.897 4 22 4C23.103 4 24 4.897 24 6V8H20V6ZM14 56V10H18V14C18 16.206 19.794 18 22 18C24.206 18 26 16.206 26 14V12H24V14C24 15.103 23.103 16 22 16C20.897 16 20 15.103 20 14V10H50V56H14ZM54 60H18V58H51C51.553 58 52 57.552 52 57V14H54V60Z" fill="#231F20"/>
</svg>
