<svg width="14" height="16" viewBox="0 0 14 16" fill="none" xmlns="http://www.w3.org/2000/svg">
<path d="M13 6.39876H1M9.66667 1.06543V3.7321M4.33333 1.06543V3.7321M4.2 14.3988H9.8C10.9201 14.3988 11.4802 14.3988 11.908 14.1808C12.2843 13.989 12.5903 13.6831 12.782 13.3067C13 12.8789 13 12.3189 13 11.1988V5.59876C13 4.47866 13 3.91861 12.782 3.49078C12.5903 3.11446 12.2843 2.8085 11.908 2.61675C11.4802 2.39876 10.9201 2.39876 9.8 2.39876H4.2C3.0799 2.39876 2.51984 2.39876 2.09202 2.61675C1.71569 2.8085 1.40973 3.11446 1.21799 3.49078C1 3.91861 1 4.47866 1 5.59876V11.1988C1 12.3189 1 12.8789 1.21799 13.3067C1.40973 13.6831 1.71569 13.989 2.09202 14.1808C2.51984 14.3988 3.0799 14.3988 4.2 14.3988Z" stroke="#63656B" stroke-width="1.33333" stroke-linecap="round" stroke-linejoin="round"/>
</svg>
