<svg width="55" height="54" viewBox="0 0 55 54" fill="none" xmlns="http://www.w3.org/2000/svg">
<g clip-path="url(#clip0_217_36356)">
<path d="M8.98633 31.5859L22.4093 45.0089L29.0956 42.1931L11.8078 24.9053L8.98633 31.5859Z" fill="#A8DF87"/>
<path d="M3.62305 44.3076L9.69228 50.3768L16.3729 47.5554L6.4389 37.627L3.62305 44.3076Z" fill="#A8DF87"/>
<path d="M2.74328 53.9941C2.29264 53.9938 1.84904 53.8823 1.45187 53.6693C1.05469 53.4564 0.716226 53.1488 0.466512 52.7736C0.216798 52.3985 0.0635563 51.9675 0.020396 51.519C-0.0227643 51.0704 0.0454959 50.6181 0.219103 50.2023L13.9618 17.6685C14.016 17.542 14.1003 17.4308 14.2074 17.3445C14.3145 17.2581 14.4411 17.1994 14.5762 17.1734C14.7112 17.1474 14.8506 17.1549 14.9821 17.1952C15.1137 17.2356 15.2333 17.3075 15.3305 17.4048L36.6177 38.692C36.715 38.7893 36.787 38.9089 36.8273 39.0404C36.8677 39.1719 36.8752 39.3113 36.8491 39.4463C36.8231 39.5814 36.7644 39.708 36.6781 39.8151C36.5917 39.9222 36.4805 40.0066 36.354 40.0607L3.82026 53.7978C3.47765 53.9334 3.11168 54.0001 2.74328 53.9941ZM15.0444 19.4522L1.80092 50.8642C1.7194 51.0556 1.69698 51.2671 1.73658 51.4714C1.77617 51.6757 1.87595 51.8635 2.0231 52.0106C2.17025 52.1578 2.35804 52.2576 2.56234 52.2972C2.76664 52.3368 2.97812 52.3143 3.16959 52.2328L34.5815 38.9893L15.0444 19.4522Z" fill="#212322"/>
<path d="M46.0967 16.1943H46.007C45.8495 16.1752 45.7004 16.1127 45.5766 16.0136C45.4527 15.9145 45.3589 15.7828 45.3058 15.6333L43.7576 11.4993L39.4441 10.3774C39.2915 10.3397 39.1527 10.2596 39.0436 10.1465C38.9344 10.0334 38.8594 9.8918 38.8271 9.73798C38.7945 9.5848 38.8051 9.42561 38.8576 9.27807C38.9101 9.13052 39.0024 9.00041 39.1244 8.9022L42.6134 6.14245L42.3161 1.6999C42.3053 1.54299 42.3387 1.3862 42.4125 1.24731C42.4863 1.10843 42.5976 0.993009 42.7337 0.914158C42.8697 0.835308 43.0252 0.796176 43.1824 0.801213C43.3396 0.80625 43.4923 0.855243 43.623 0.942643L47.3308 3.40512L51.4592 1.75038C51.6053 1.69289 51.7644 1.67715 51.919 1.70488C52.0735 1.73261 52.2173 1.80274 52.3342 1.90744C52.4513 2.01203 52.5365 2.14749 52.5802 2.29828C52.6238 2.44907 52.6241 2.60911 52.581 2.76006L51.3806 7.04553L54.2358 10.4616C54.3354 10.5828 54.3996 10.7292 54.4214 10.8846C54.4432 11.0399 54.4216 11.1983 54.3592 11.3422C54.2955 11.4857 54.1929 11.6085 54.063 11.6967C53.9332 11.785 53.7812 11.8351 53.6244 11.8415L49.1762 12.0266L46.8091 15.796C46.7335 15.917 46.6286 16.017 46.504 16.0866C46.3795 16.1562 46.2394 16.1932 46.0967 16.1943ZM41.5083 9.17145L44.599 9.95113C44.7271 9.98749 44.8448 10.0537 44.9423 10.1444C45.0398 10.2351 45.1144 10.3477 45.16 10.4728L46.2818 13.4625L47.9646 10.7589C48.0381 10.6439 48.1381 10.5482 48.2562 10.4799C48.3743 10.4116 48.507 10.3726 48.6433 10.3662L51.8294 10.2372L49.7876 7.79158C49.6995 7.68665 49.6382 7.5619 49.6089 7.42806C49.5795 7.29421 49.5831 7.15524 49.6193 7.02309L50.4776 3.95482L47.5215 5.13839C47.395 5.19001 47.2578 5.20985 47.1219 5.19616C46.9859 5.18247 46.8554 5.13566 46.7418 5.05985L44.0886 3.29293L44.3017 6.47339C44.31 6.60994 44.2852 6.74646 44.2295 6.87143C44.1739 6.99639 44.089 7.10613 43.982 7.19138L41.5083 9.17145Z" fill="#212322"/>
<path d="M38.7207 32.4659L40.9251 32.0901L41.8619 30.0596L42.9052 32.0396L45.1209 32.3089L43.5615 33.9075L43.9934 36.1008L41.9909 35.1135L40.0333 36.2017L40.3586 33.9861L38.7207 32.4659Z" fill="#A8DF87"/>
<path d="M21.2527 16.5473C20.4761 16.5473 19.7169 16.317 19.0712 15.8856C18.4255 15.4541 17.9222 14.8409 17.6251 14.1234C17.3279 13.406 17.2501 12.6165 17.4016 11.8548C17.5531 11.0932 17.9271 10.3935 18.4762 9.84439C19.0254 9.29526 19.725 8.92129 20.4867 8.76978C21.2483 8.61828 22.0378 8.69604 22.7553 8.99323C23.4727 9.29041 24.086 9.79369 24.5174 10.4394C24.9489 11.0851 25.1792 11.8442 25.1792 12.6208C25.1792 13.6622 24.7655 14.6609 24.0291 15.3973C23.2928 16.1336 22.294 16.5473 21.2527 16.5473ZM21.2527 10.3771C20.8089 10.3771 20.3751 10.5087 20.0061 10.7553C19.6372 11.0018 19.3496 11.3522 19.1797 11.7622C19.0099 12.1722 18.9655 12.6233 19.0521 13.0586C19.1387 13.4938 19.3523 13.8936 19.6661 14.2074C19.9799 14.5212 20.3797 14.7348 20.8149 14.8214C21.2502 14.908 21.7013 14.8636 22.1113 14.6938C22.5213 14.5239 22.8717 14.2364 23.1182 13.8674C23.3648 13.4984 23.4964 13.0646 23.4964 12.6208C23.4964 12.0258 23.26 11.4551 22.8392 11.0343C22.4184 10.6135 21.8477 10.3771 21.2527 10.3771Z" fill="#A8DF87"/>
<path d="M28.7189 26.2228C28.6018 26.2222 28.4861 26.1975 28.379 26.1502C28.2719 26.1029 28.1756 26.0341 28.0963 25.948C28.0218 25.8662 27.9642 25.7706 27.9268 25.6666C27.8893 25.5626 27.8727 25.4522 27.8779 25.3418C27.8831 25.2313 27.91 25.123 27.9571 25.023C28.0042 24.9229 28.0706 24.8332 28.1524 24.7588L40.0384 13.9049C40.2065 13.7787 40.4157 13.72 40.6249 13.7403C40.8341 13.7606 41.0281 13.8584 41.1687 14.0145C41.3094 14.1707 41.3865 14.3738 41.385 14.584C41.3834 14.7941 41.3033 14.9961 41.1603 15.1501L29.2742 25.9985C29.1238 26.1402 28.9256 26.2203 28.7189 26.2228Z" fill="#A8DF87"/>
<path d="M50.506 33.0838C50.1836 33.0835 49.8622 33.0497 49.5468 32.9828C49.1097 32.8899 48.6968 32.7067 48.3345 32.4449C47.9723 32.1832 47.6688 31.8486 47.4434 31.4627C47.2299 31.1073 47.091 30.7122 47.0351 30.3014C46.9792 29.8906 47.0074 29.4727 47.118 29.0732C47.2971 28.4942 47.6532 27.9859 48.1361 27.6196C48.6191 27.2534 49.2046 27.0477 49.8105 27.0314C50.225 27.035 50.6259 27.1797 50.9471 27.4418C51.2684 27.7039 51.4907 28.0676 51.5774 28.473C51.6158 28.6827 51.5732 28.8991 51.4582 29.0785C51.3432 29.258 51.1643 29.3871 50.9578 29.4398C50.7513 29.4925 50.5324 29.4649 50.3455 29.3625C50.1585 29.26 50.0175 29.0905 49.9507 28.8881C49.9058 28.7142 49.8497 28.7142 49.7656 28.7142C49.5274 28.7418 49.3024 28.8382 49.1181 28.9916C48.9338 29.145 48.7982 29.3488 48.7279 29.578C48.6456 29.9351 48.7081 30.3102 48.9018 30.6213C49.0082 30.8057 49.1529 30.9652 49.3261 31.089C49.4992 31.2129 49.6969 31.2982 49.9058 31.3393C50.6221 31.4961 51.3714 31.3621 51.9889 30.9666C52.6063 30.571 53.0414 29.9465 53.1985 29.2302C53.2863 28.7603 53.2716 28.277 53.1554 27.8133C53.0392 27.3496 52.8243 26.9164 52.5254 26.5434C52.0125 25.9125 51.3687 25.4006 50.6384 25.0432C49.9081 24.6858 49.1088 24.4914 48.296 24.4736C45.1996 24.238 41.935 26.1227 38.1432 28.2991C36.6455 29.1629 35.0917 30.0492 33.4202 30.8906C33.2223 30.9901 32.993 31.0071 32.7826 30.9376C32.5723 30.8682 32.3981 30.7181 32.2983 30.5204C32.2018 30.322 32.1864 30.0938 32.2556 29.8842C32.3247 29.6747 32.4729 29.5005 32.6685 29.3985C34.3008 28.5796 35.8322 27.7157 37.313 26.8519C41.3461 24.5353 44.8294 22.5384 48.425 22.8076C49.4785 22.8423 50.512 23.105 51.4542 23.5775C52.3964 24.0501 53.225 24.7213 53.8828 25.5449C54.3231 26.1133 54.637 26.7691 54.8033 27.4685C54.9697 28.1679 54.9848 28.8947 54.8476 29.6004C54.6305 30.5895 54.0825 31.4748 53.2941 32.1102C52.5058 32.7456 51.5242 33.093 50.5116 33.095L50.506 33.0838Z" fill="#212322"/>
<path d="M23.666 22.156C23.4812 22.1568 23.3015 22.0956 23.1556 21.9821C22.9788 21.8465 22.863 21.6464 22.8336 21.4256C22.8041 21.2047 22.8634 20.9813 22.9985 20.8041C24.1204 19.3177 25.2983 17.9602 26.4202 16.6477C29.2641 13.327 31.721 10.4775 32.0687 7.38114C32.2004 6.57881 32.1573 5.75752 31.9424 4.97337C31.7275 4.18923 31.3458 3.46071 30.8235 2.83763C30.5103 2.47626 30.1236 2.1858 29.6894 1.98559C29.2551 1.78537 28.7831 1.68 28.3049 1.6765C27.5719 1.69995 26.878 2.01305 26.3755 2.54718C25.8729 3.08131 25.6025 3.79292 25.6237 4.52602C25.6257 4.73939 25.6733 4.94986 25.7633 5.14334C25.8532 5.33682 25.9835 5.50883 26.1454 5.64788C26.2778 5.7703 26.4333 5.86509 26.6028 5.92673C26.7723 5.98837 26.9524 6.01561 27.1326 6.00686C27.3716 5.98213 27.598 5.88755 27.7835 5.73492C27.9691 5.58229 28.1055 5.37837 28.1759 5.14864C28.1759 5.0645 28.1759 5.01402 28.0413 4.93549C27.9367 4.89196 27.842 4.82777 27.7628 4.74674C27.6836 4.66572 27.6216 4.56955 27.5805 4.46399C27.5394 4.35842 27.52 4.24564 27.5236 4.13241C27.5271 4.01918 27.5535 3.90782 27.6011 3.80502C27.6487 3.70223 27.7166 3.61012 27.8007 3.5342C27.8848 3.45828 27.9833 3.40011 28.0904 3.3632C28.1975 3.32629 28.311 3.3114 28.424 3.3194C28.537 3.3274 28.6472 3.35813 28.748 3.40977C29.1311 3.57045 29.4477 3.85711 29.6456 4.2223C29.8435 4.58748 29.9108 5.00928 29.8362 5.41789C29.7058 6.0073 29.3937 6.54088 28.9438 6.94343C28.494 7.34598 27.9291 7.59718 27.3289 7.6616C26.916 7.69808 26.4999 7.64971 26.1064 7.51949C25.7128 7.38927 25.35 7.17993 25.0403 6.90435C24.6997 6.61256 24.4239 6.2527 24.2307 5.84792C24.0375 5.44314 23.9311 5.00241 23.9185 4.55406C23.8853 3.37461 24.3214 2.23019 25.1312 1.37202C25.941 0.513857 27.0582 0.0120908 28.2376 -0.0231065C28.9551 -0.0313542 29.6659 0.114624 30.322 0.40495C30.9782 0.695275 31.5643 1.12317 32.0407 1.65968C32.7285 2.458 33.235 3.39589 33.5255 4.40878C33.816 5.42167 33.8836 6.4855 33.7235 7.52699C33.3196 11.1169 30.7057 14.1684 27.6823 17.7022C26.5604 18.9979 25.4386 20.3386 24.3167 21.7857C24.2439 21.8932 24.1473 21.9825 24.0345 22.0466C23.9217 22.1108 23.7956 22.1482 23.666 22.156Z" fill="#212322"/>
</g>
<defs>
<clipPath id="clip0_217_36356">
<rect width="54.9484" height="54.0005" fill="white"/>
</clipPath>
</defs>
</svg>
