<svg width="28" height="30" viewBox="0 0 28 30" fill="none" xmlns="http://www.w3.org/2000/svg">
<path d="M19.3333 6.99935V5.93268C19.3333 4.43921 19.3333 3.69247 19.0427 3.12204C18.787 2.62028 18.3791 2.21233 17.8773 1.95666C17.3069 1.66602 16.5601 1.66602 15.0667 1.66602H12.9333C11.4399 1.66602 10.6931 1.66602 10.1227 1.95666C9.62093 2.21233 9.21298 2.62028 8.95732 3.12204C8.66667 3.69247 8.66667 4.43921 8.66667 5.93268V6.99935M11.3333 14.3327V20.9993M16.6667 14.3327V20.9993M2 6.99935H26M23.3333 6.99935V21.9327C23.3333 24.1729 23.3333 25.293 22.8974 26.1486C22.5139 26.9013 21.9019 27.5132 21.1493 27.8967C20.2936 28.3327 19.1735 28.3327 16.9333 28.3327H11.0667C8.82646 28.3327 7.70635 28.3327 6.8507 27.8967C6.09806 27.5132 5.48613 26.9013 5.10264 26.1486C4.66667 25.293 4.66667 24.1729 4.66667 21.9327V6.99935" stroke="#212322" stroke-width="2.66667" stroke-linecap="round" stroke-linejoin="round"/>
</svg>
