<svg width="41" height="41" viewBox="0 0 41 41" fill="none" xmlns="http://www.w3.org/2000/svg">
<path d="M8.25 4.2002C8.25 2.40527 9.70508 0.950195 11.5 0.950195H27.5C27.6212 0.950195 27.7375 0.998354 27.8232 1.08408L38.6161 11.877C38.7018 11.9627 38.75 12.079 38.75 12.2002V36.2002C38.75 37.9951 37.2949 39.4502 35.5 39.4502H11.5C9.70507 39.4502 8.25 37.9951 8.25 36.2002V4.2002Z" fill="white" stroke="#D0D5DD" stroke-width="1.5"/>
<path d="M27.5 0.700195V8.2002C27.5 10.4093 29.2909 12.2002 31.5 12.2002H39" stroke="#D0D5DD" stroke-width="1.5"/>
<rect x="1.5" y="18.2002" width="29" height="16" rx="2" fill="#155EEF"/>
<path d="M7.90163 30.2002H5.32351V22.9275H7.92294C8.65447 22.9275 9.28421 23.0731 9.81214 23.3643C10.3401 23.6531 10.7461 24.0686 11.0302 24.6107C11.3166 25.1528 11.4599 25.8015 11.4599 26.5567C11.4599 27.3143 11.3166 27.9653 11.0302 28.5099C10.7461 29.0544 10.3377 29.4722 9.80504 29.7634C9.27474 30.0546 8.64027 30.2002 7.90163 30.2002ZM6.86115 28.8827H7.83771C8.29226 28.8827 8.6746 28.8022 8.98473 28.6412C9.29723 28.4779 9.53161 28.2258 9.68786 27.8849C9.84647 27.5416 9.92578 27.0989 9.92578 26.5567C9.92578 26.0193 9.84647 25.5802 9.68786 25.2393C9.53161 24.8983 9.29841 24.6474 8.98828 24.4864C8.67815 24.3254 8.29581 24.2449 7.84126 24.2449H6.86115V28.8827ZM19.2821 26.5638C19.2821 27.3569 19.1318 28.0316 18.8311 28.588C18.5328 29.1443 18.1257 29.5693 17.6096 29.8628C17.0958 30.154 16.5182 30.2996 15.8766 30.2996C15.2303 30.2996 14.6503 30.1528 14.1365 29.8593C13.6228 29.5657 13.2168 29.1408 12.9185 28.5844C12.6202 28.0281 12.4711 27.3546 12.4711 26.5638C12.4711 25.7707 12.6202 25.096 12.9185 24.5397C13.2168 23.9833 13.6228 23.5596 14.1365 23.2684C14.6503 22.9748 15.2303 22.828 15.8766 22.828C16.5182 22.828 17.0958 22.9748 17.6096 23.2684C18.1257 23.5596 18.5328 23.9833 18.8311 24.5397C19.1318 25.096 19.2821 25.7707 19.2821 26.5638ZM17.7232 26.5638C17.7232 26.0501 17.6462 25.6169 17.4924 25.2641C17.3408 24.9114 17.1266 24.6439 16.8496 24.4616C16.5726 24.2793 16.2483 24.1881 15.8766 24.1881C15.5049 24.1881 15.1806 24.2793 14.9036 24.4616C14.6266 24.6439 14.4112 24.9114 14.2573 25.2641C14.1058 25.6169 14.03 26.0501 14.03 26.5638C14.03 27.0776 14.1058 27.5108 14.2573 27.8635C14.4112 28.2163 14.6266 28.4838 14.9036 28.6661C15.1806 28.8484 15.5049 28.9395 15.8766 28.9395C16.2483 28.9395 16.5726 28.8484 16.8496 28.6661C17.1266 28.4838 17.3408 28.2163 17.4924 27.8635C17.6462 27.5108 17.7232 27.0776 17.7232 26.5638ZM26.8381 25.4736H25.2827C25.2543 25.2724 25.1963 25.0937 25.1087 24.9374C25.0211 24.7788 24.9086 24.6439 24.7713 24.5326C24.634 24.4213 24.4754 24.3361 24.2955 24.2769C24.1179 24.2177 23.925 24.1881 23.7166 24.1881C23.3402 24.1881 23.0123 24.2816 22.733 24.4687C22.4536 24.6533 22.237 24.9232 22.0831 25.2783C21.9292 25.6311 21.8523 26.0596 21.8523 26.5638C21.8523 27.0823 21.9292 27.5179 22.0831 27.8706C22.2393 28.2234 22.4571 28.4897 22.7365 28.6697C23.0159 28.8496 23.339 28.9395 23.706 28.9395C23.9119 28.9395 24.1025 28.9123 24.2777 28.8579C24.4553 28.8034 24.6127 28.7241 24.75 28.6199C24.8873 28.5134 25.0009 28.3844 25.0909 28.2329C25.1832 28.0814 25.2472 27.9085 25.2827 27.7144L26.8381 27.7215C26.7978 28.0553 26.6972 28.3773 26.5362 28.6874C26.3776 28.9952 26.1634 29.271 25.8935 29.5148C25.6259 29.7563 25.3063 29.9481 24.9347 30.0901C24.5653 30.2298 24.1475 30.2996 23.6811 30.2996C23.0324 30.2996 22.4524 30.1528 21.9411 29.8593C21.4321 29.5657 21.0296 29.1408 20.7337 28.5844C20.4401 28.0281 20.2933 27.3546 20.2933 26.5638C20.2933 25.7707 20.4425 25.096 20.7408 24.5397C21.0391 23.9833 21.4439 23.5596 21.9553 23.2684C22.4666 22.9748 23.0419 22.828 23.6811 22.828C24.1025 22.828 24.4931 22.8872 24.853 23.0056C25.2152 23.124 25.536 23.2968 25.8153 23.5241C26.0947 23.749 26.322 24.0248 26.4972 24.3515C26.6747 24.6782 26.7884 25.0522 26.8381 25.4736Z" fill="white"/>
</svg>
