<svg width="40" height="41" viewBox="0 0 40 41" fill="none" xmlns="http://www.w3.org/2000/svg">
<g clip-path="url(#clip0_297_10689)">
<path d="M38.6316 11.025L28.4411 0.435977C28.296 0.285352 28.0959 0.200195 27.8868 0.200195H12.6985C10.9988 0.200195 9.61586 1.58254 9.61586 3.2816V14.0464H3.46062C2.18891 14.0464 1.1543 15.0807 1.1543 16.3521V27.8946C1.1543 29.1659 2.18891 30.2002 3.46062 30.2002H9.61586V37.1242C9.61586 38.8203 10.9988 40.2002 12.6985 40.2002H35.764C37.4637 40.2002 38.8466 38.8211 38.8466 37.1259V11.5584C38.8466 11.3595 38.7695 11.1683 38.6316 11.025ZM28.0774 2.27684L36.443 10.9694H28.0774V2.27684ZM3.46062 28.6618C3.03719 28.6618 2.69281 28.3176 2.69281 27.8946V16.3521C2.69281 15.929 3.03727 15.5848 3.46062 15.5848H24.2327C24.6561 15.5848 25.0005 15.929 25.0005 16.3521V27.8946C25.0005 28.3176 24.656 28.6618 24.2327 28.6618H3.46062ZM37.3081 37.1259C37.3081 37.9728 36.6154 38.6618 35.7639 38.6618H12.6985C11.847 38.6618 11.1543 37.9721 11.1543 37.1243V30.2002H24.2327C25.5044 30.2002 26.539 29.1659 26.539 27.8946V16.3521C26.539 15.0807 25.5044 14.0464 24.2327 14.0464H11.1543V3.2816C11.1543 2.43074 11.847 1.73863 12.6985 1.73863H26.5389V11.7386C26.5389 12.1635 26.8834 12.5079 27.3081 12.5079H37.3081V37.1259Z" fill="#14A077"/>
<path d="M4.71289 26.201V18.751H7.14289C7.92956 18.751 8.61289 18.911 9.19289 19.231C9.77956 19.5443 10.2329 19.981 10.5529 20.541C10.8729 21.0943 11.0329 21.7376 11.0329 22.471C11.0329 23.1976 10.8729 23.8443 10.5529 24.411C10.2329 24.971 9.77956 25.411 9.19289 25.731C8.61289 26.0443 7.92956 26.201 7.14289 26.201H4.71289ZM6.07289 25.001H7.17289C7.67956 25.001 8.11622 24.8976 8.48289 24.691C8.85622 24.4776 9.14622 24.1843 9.35289 23.811C9.55956 23.431 9.66289 22.9843 9.66289 22.471C9.66289 21.951 9.55956 21.5043 9.35289 21.131C9.14622 20.7576 8.85622 20.4676 8.48289 20.261C8.11622 20.0543 7.67956 19.951 7.17289 19.951H6.07289V25.001Z" fill="#14A077"/>
<path d="M14.6652 26.321C14.1319 26.321 13.6452 26.1976 13.2052 25.951C12.7719 25.7043 12.4252 25.3676 12.1652 24.941C11.9119 24.5143 11.7852 24.0276 11.7852 23.481C11.7852 22.9343 11.9119 22.4476 12.1652 22.021C12.4252 21.5943 12.7719 21.2576 13.2052 21.011C13.6386 20.7643 14.1252 20.641 14.6652 20.641C15.1986 20.641 15.6819 20.7643 16.1152 21.011C16.5486 21.2576 16.8919 21.5943 17.1452 22.021C17.4052 22.441 17.5352 22.9276 17.5352 23.481C17.5352 24.0276 17.4052 24.5143 17.1452 24.941C16.8852 25.3676 16.5386 25.7043 16.1052 25.951C15.6719 26.1976 15.1919 26.321 14.6652 26.321ZM14.6652 25.121C14.9586 25.121 15.2152 25.051 15.4352 24.911C15.6619 24.771 15.8386 24.5776 15.9652 24.331C16.0986 24.0776 16.1652 23.7943 16.1652 23.481C16.1652 23.161 16.0986 22.881 15.9652 22.641C15.8386 22.3943 15.6619 22.201 15.4352 22.061C15.2152 21.9143 14.9586 21.841 14.6652 21.841C14.3652 21.841 14.1019 21.9143 13.8752 22.061C13.6486 22.201 13.4686 22.3943 13.3352 22.641C13.2086 22.881 13.1452 23.161 13.1452 23.481C13.1452 23.7943 13.2086 24.0776 13.3352 24.331C13.4686 24.5776 13.6486 24.771 13.8752 24.911C14.1019 25.051 14.3652 25.121 14.6652 25.121Z" fill="#14A077"/>
<path d="M21.1487 26.321C20.6087 26.321 20.122 26.1976 19.6887 25.951C19.262 25.6976 18.9253 25.3576 18.6787 24.931C18.432 24.4976 18.3087 24.011 18.3087 23.471C18.3087 22.931 18.432 22.4476 18.6787 22.021C18.9253 21.5943 19.262 21.2576 19.6887 21.011C20.122 20.7643 20.6087 20.641 21.1487 20.641C21.5353 20.641 21.8953 20.711 22.2287 20.851C22.562 20.9843 22.8487 21.171 23.0887 21.411C23.3353 21.6443 23.512 21.9243 23.6187 22.251L22.4687 22.751C22.3687 22.4776 22.1987 22.2576 21.9587 22.091C21.7253 21.9243 21.4553 21.841 21.1487 21.841C20.862 21.841 20.6053 21.911 20.3787 22.051C20.1587 22.191 19.9853 22.3843 19.8587 22.631C19.732 22.8776 19.6687 23.161 19.6687 23.481C19.6687 23.801 19.732 24.0843 19.8587 24.331C19.9853 24.5776 20.1587 24.771 20.3787 24.911C20.6053 25.051 20.862 25.121 21.1487 25.121C21.462 25.121 21.7353 25.0376 21.9687 24.871C22.202 24.7043 22.3687 24.481 22.4687 24.201L23.6187 24.721C23.512 25.0276 23.3387 25.3043 23.0987 25.551C22.8587 25.791 22.572 25.981 22.2387 26.121C21.9053 26.2543 21.542 26.321 21.1487 26.321Z" fill="#14A077"/>
</g>
<defs>
<clipPath id="clip0_297_10689">
<rect width="40" height="40" fill="white" transform="translate(0 0.200195)"/>
</clipPath>
</defs>
</svg>
