<svg width="20" height="9" viewBox="0 0 20 9" fill="none" xmlns="http://www.w3.org/2000/svg">
<path d="M0.712891 8.20098V0.750977H3.14289C3.92956 0.750977 4.61289 0.910977 5.19289 1.23098C5.77956 1.54431 6.23289 1.98098 6.55289 2.54098C6.87289 3.09431 7.03289 3.73764 7.03289 4.47098C7.03289 5.19764 6.87289 5.84431 6.55289 6.41098C6.23289 6.97098 5.77956 7.41098 5.19289 7.73098C4.61289 8.04431 3.92956 8.20098 3.14289 8.20098H0.712891ZM2.07289 7.00098H3.17289C3.67956 7.00098 4.11622 6.89764 4.48289 6.69098C4.85622 6.47764 5.14622 6.18431 5.35289 5.81098C5.55956 5.43098 5.66289 4.98431 5.66289 4.47098C5.66289 3.95098 5.55956 3.50431 5.35289 3.13098C5.14622 2.75764 4.85622 2.46764 4.48289 2.26098C4.11622 2.05431 3.67956 1.95098 3.17289 1.95098H2.07289V7.00098Z" fill="#14A077"/>
<path d="M10.6652 8.32098C10.1319 8.32098 9.64523 8.19764 9.20523 7.95098C8.7719 7.70431 8.42523 7.36764 8.16523 6.94098C7.9119 6.51431 7.78523 6.02764 7.78523 5.48098C7.78523 4.93431 7.9119 4.44764 8.16523 4.02098C8.42523 3.59431 8.7719 3.25764 9.20523 3.01098C9.63857 2.76431 10.1252 2.64098 10.6652 2.64098C11.1986 2.64098 11.6819 2.76431 12.1152 3.01098C12.5486 3.25764 12.8919 3.59431 13.1452 4.02098C13.4052 4.44098 13.5352 4.92764 13.5352 5.48098C13.5352 6.02764 13.4052 6.51431 13.1452 6.94098C12.8852 7.36764 12.5386 7.70431 12.1052 7.95098C11.6719 8.19764 11.1919 8.32098 10.6652 8.32098ZM10.6652 7.12098C10.9586 7.12098 11.2152 7.05098 11.4352 6.91098C11.6619 6.77098 11.8386 6.57764 11.9652 6.33098C12.0986 6.07764 12.1652 5.79431 12.1652 5.48098C12.1652 5.16098 12.0986 4.88098 11.9652 4.64098C11.8386 4.39431 11.6619 4.20098 11.4352 4.06098C11.2152 3.91431 10.9586 3.84098 10.6652 3.84098C10.3652 3.84098 10.1019 3.91431 9.87523 4.06098C9.64857 4.20098 9.46857 4.39431 9.33523 4.64098C9.20857 4.88098 9.14523 5.16098 9.14523 5.48098C9.14523 5.79431 9.20857 6.07764 9.33523 6.33098C9.46857 6.57764 9.64857 6.77098 9.87523 6.91098C10.1019 7.05098 10.3652 7.12098 10.6652 7.12098Z" fill="#14A077"/>
<path d="M17.1487 8.32098C16.6087 8.32098 16.122 8.19764 15.6887 7.95098C15.262 7.69764 14.9253 7.35764 14.6787 6.93098C14.432 6.49764 14.3087 6.01098 14.3087 5.47098C14.3087 4.93098 14.432 4.44764 14.6787 4.02098C14.9253 3.59431 15.262 3.25764 15.6887 3.01098C16.122 2.76431 16.6087 2.64098 17.1487 2.64098C17.5353 2.64098 17.8953 2.71098 18.2287 2.85098C18.562 2.98431 18.8487 3.17098 19.0887 3.41098C19.3353 3.64431 19.512 3.92431 19.6187 4.25098L18.4687 4.75098C18.3687 4.47764 18.1987 4.25764 17.9587 4.09098C17.7253 3.92431 17.4553 3.84098 17.1487 3.84098C16.862 3.84098 16.6053 3.91098 16.3787 4.05098C16.1587 4.19098 15.9853 4.38431 15.8587 4.63098C15.732 4.87764 15.6687 5.16098 15.6687 5.48098C15.6687 5.80098 15.732 6.08431 15.8587 6.33098C15.9853 6.57764 16.1587 6.77098 16.3787 6.91098C16.6053 7.05098 16.862 7.12098 17.1487 7.12098C17.462 7.12098 17.7353 7.03764 17.9687 6.87098C18.202 6.70431 18.3687 6.48098 18.4687 6.20098L19.6187 6.72098C19.512 7.02764 19.3387 7.30431 19.0987 7.55098C18.8587 7.79098 18.572 7.98098 18.2387 8.12098C17.9053 8.25431 17.542 8.32098 17.1487 8.32098Z" fill="#14A077"/>
</svg>
