<svg width="21" height="20" viewBox="0 0 21 20" fill="none" xmlns="http://www.w3.org/2000/svg">
<g clip-path="url(#clip0_1141_1593)">
<path d="M16.3333 9.9987C15.8725 9.9987 15.5 10.372 15.5 10.832V17.4987C15.5 17.9579 15.1267 18.332 14.6667 18.332H3C2.54 18.332 2.16667 17.9579 2.16667 17.4987V5.83203C2.16667 5.37286 2.54 4.9987 3 4.9987H9.66667C10.1275 4.9987 10.5 4.62536 10.5 4.16536C10.5 3.70536 10.1275 3.33203 9.66667 3.33203H3C1.62167 3.33203 0.5 4.4537 0.5 5.83203V17.4987C0.5 18.877 1.62167 19.9987 3 19.9987H14.6667C16.045 19.9987 17.1667 18.877 17.1667 17.4987V10.832C17.1667 10.3712 16.7942 9.9987 16.3333 9.9987Z" fill="#155EEF"/>
<path d="M8.31302 9.24177C8.25469 9.3001 8.21552 9.37427 8.19886 9.45427L7.60969 12.4009C7.58219 12.5376 7.62552 12.6784 7.72386 12.7776C7.80302 12.8568 7.90969 12.8993 8.01886 12.8993C8.04552 12.8993 8.07302 12.8968 8.10052 12.8909L11.0464 12.3018C11.128 12.2851 11.2022 12.2459 11.2597 12.1876L17.853 5.59427L14.9072 2.64844L8.31302 9.24177Z" fill="#155EEF"/>
<path d="M19.8902 0.609375C19.0777 -0.203125 17.756 -0.203125 16.9443 0.609375L15.791 1.76271L18.7368 4.70854L19.8902 3.55521C20.2835 3.16271 20.5002 2.63938 20.5002 2.08271C20.5002 1.52604 20.2835 1.00271 19.8902 0.609375Z" fill="#155EEF"/>
</g>
<defs>
<clipPath id="clip0_1141_1593">
<rect width="20" height="20" fill="white" transform="translate(0.5)"/>
</clipPath>
</defs>
</svg>
