<svg width="20" height="20" viewBox="0 0 20 20" fill="none" xmlns="http://www.w3.org/2000/svg">
<g clip-path="url(#clip0_212_5691)">
<path d="M15.8333 9.9987C15.3725 9.9987 15 10.372 15 10.832V17.4987C15 17.9579 14.6267 18.332 14.1667 18.332H2.5C2.04 18.332 1.66667 17.9579 1.66667 17.4987V5.83203C1.66667 5.37286 2.04 4.9987 2.5 4.9987H9.16667C9.6275 4.9987 10 4.62536 10 4.16536C10 3.70536 9.6275 3.33203 9.16667 3.33203H2.5C1.12167 3.33203 0 4.4537 0 5.83203V17.4987C0 18.877 1.12167 19.9987 2.5 19.9987H14.1667C15.545 19.9987 16.6667 18.877 16.6667 17.4987V10.832C16.6667 10.3712 16.2942 9.9987 15.8333 9.9987Z" fill="#121212"/>
<path d="M7.81302 9.24177C7.75469 9.3001 7.71552 9.37427 7.69886 9.45427L7.10969 12.4009C7.08219 12.5376 7.12552 12.6784 7.22386 12.7776C7.30302 12.8568 7.40969 12.8993 7.51886 12.8993C7.54552 12.8993 7.57302 12.8968 7.60052 12.8909L10.5464 12.3018C10.628 12.2851 10.7022 12.2459 10.7597 12.1876L17.353 5.59427L14.4072 2.64844L7.81302 9.24177Z" fill="#121212"/>
<path d="M19.3902 0.609375C18.5777 -0.203125 17.256 -0.203125 16.4443 0.609375L15.291 1.76271L18.2368 4.70854L19.3902 3.55521C19.7835 3.16271 20.0002 2.63938 20.0002 2.08271C20.0002 1.52604 19.7835 1.00271 19.3902 0.609375Z" fill="#121212"/>
</g>
<defs>
<clipPath id="clip0_212_5691">
<rect width="20" height="20" fill="white"/>
</clipPath>
</defs>
</svg>
