<svg width="20" height="21" viewBox="0 0 20 21" fill="none" xmlns="http://www.w3.org/2000/svg">
<g clip-path="url(#clip0_234_10346)">
<path d="M15.8333 10.1989C15.3725 10.1989 15 10.5722 15 11.0322V17.6989C15 18.1581 14.6267 18.5322 14.1667 18.5322H2.5C2.04 18.5322 1.66667 18.1581 1.66667 17.6989V6.03223C1.66667 5.57306 2.04 5.19889 2.5 5.19889H9.16667C9.6275 5.19889 10 4.82556 10 4.36556C10 3.90556 9.6275 3.53223 9.16667 3.53223H2.5C1.12167 3.53223 0 4.65389 0 6.03223V17.6989C0 19.0772 1.12167 20.1989 2.5 20.1989H14.1667C15.545 20.1989 16.6667 19.0772 16.6667 17.6989V11.0322C16.6667 10.5714 16.2942 10.1989 15.8333 10.1989Z" fill="#121212"/>
<path d="M7.81302 9.44197C7.75469 9.5003 7.71552 9.57447 7.69886 9.65447L7.10969 12.6011C7.08219 12.7378 7.12552 12.8786 7.22386 12.9778C7.30302 13.057 7.40969 13.0995 7.51886 13.0995C7.54552 13.0995 7.57302 13.097 7.60052 13.0911L10.5464 12.502C10.628 12.4853 10.7022 12.4461 10.7597 12.3878L17.353 5.79447L14.4072 2.84863L7.81302 9.44197Z" fill="#121212"/>
<path d="M19.3902 0.80957C18.5777 -0.00292972 17.256 -0.00292972 16.4443 0.80957L15.291 1.9629L18.2368 4.90874L19.3902 3.7554C19.7835 3.3629 20.0002 2.83957 20.0002 2.2829C20.0002 1.72624 19.7835 1.2029 19.3902 0.80957Z" fill="#121212"/>
</g>
<defs>
<clipPath id="clip0_234_10346">
<rect width="20" height="20" fill="white" transform="translate(0 0.200195)"/>
</clipPath>
</defs>
</svg>
