<svg width="25" height="25" viewBox="0 0 25 25" fill="none" xmlns="http://www.w3.org/2000/svg">
<g clip-path="url(#clip0_559_4693)">
<path d="M24.2663 12.4989C24.2663 11.6832 24.2001 10.863 24.059 10.0605H12.7402V14.6815H19.222C18.953 16.1719 18.0888 17.4903 16.8233 18.328V21.3264H20.6903C22.9611 19.2364 24.2663 16.1498 24.2663 12.4989Z" fill="#4285F4"/>
<path d="M12.7391 24.224C15.9756 24.224 18.705 23.1613 20.6936 21.327L16.8266 18.3287C15.7507 19.0606 14.3618 19.4751 12.7435 19.4751C9.61291 19.4751 6.95849 17.363 6.00607 14.5234H2.01562V17.6144C4.05274 21.6666 8.20192 24.224 12.7391 24.224Z" fill="#34A853"/>
<path d="M6.00277 14.5234C5.50011 13.033 5.50011 11.4192 6.00277 9.92883V6.83789H2.01674C0.314734 10.2287 0.314734 14.2235 2.01674 17.6143L6.00277 14.5234Z" fill="#FBBC04"/>
<path d="M12.7391 4.97232C14.4499 4.94586 16.1034 5.58962 17.3425 6.77132L20.7685 3.34527C18.5991 1.30816 15.7198 0.18819 12.7391 0.223465C8.20192 0.223465 4.05274 2.78088 2.01562 6.83746L6.00166 9.92841C6.94967 7.08439 9.6085 4.97232 12.7391 4.97232Z" fill="#EA4335"/>
</g>
<defs>
<clipPath id="clip0_559_4693">
<rect width="24" height="24" fill="white" transform="translate(0.5 0.222656)"/>
</clipPath>
</defs>
</svg>
