<svg width="13" height="13" viewBox="0 0 13 13" fill="none" xmlns="http://www.w3.org/2000/svg">
<path d="M4.75 11.8935V7.57682C4.75 7.25012 4.75 7.08677 4.81358 6.96199C4.86951 6.85223 4.95874 6.76299 5.06851 6.70706C5.19329 6.64348 5.35664 6.64348 5.68333 6.64348H7.31667C7.64336 6.64348 7.80671 6.64348 7.9315 6.70706C8.04126 6.76299 8.13049 6.85223 8.18642 6.96199C8.25 7.08677 8.25 7.25012 8.25 7.57682V11.8935M5.92699 1.25583L1.97064 4.33298C1.70618 4.53868 1.57395 4.64153 1.47868 4.77033C1.3943 4.88442 1.33143 5.01295 1.29318 5.14961C1.25 5.30388 1.25 5.4714 1.25 5.80644V10.0268C1.25 10.6802 1.25 11.0069 1.37716 11.2565C1.48901 11.476 1.66749 11.6545 1.88701 11.7663C2.13657 11.8935 2.46327 11.8935 3.11667 11.8935H9.88333C10.5367 11.8935 10.8634 11.8935 11.113 11.7663C11.3325 11.6545 11.511 11.476 11.6228 11.2565C11.75 11.0069 11.75 10.6802 11.75 10.0268V5.80644C11.75 5.4714 11.75 5.30388 11.7068 5.14961C11.6686 5.01295 11.6057 4.88442 11.5213 4.77033C11.4261 4.64153 11.2938 4.53868 11.0294 4.33298L7.07301 1.25583C6.86807 1.09643 6.7656 1.01673 6.65245 0.986094C6.55262 0.959062 6.44739 0.959062 6.34755 0.986094C6.2344 1.01673 6.13193 1.09643 5.92699 1.25583Z" stroke="black" stroke-width="1.16667" stroke-linecap="round" stroke-linejoin="round"/>
</svg>
