<svg width="12" height="15" viewBox="0 0 12 15" fill="none" xmlns="http://www.w3.org/2000/svg">
<path d="M10.8283 13.5041H10.0052V12.0287C10.0052 10.5359 9.18596 9.16374 7.69843 8.16489C7.51346 8.04068 7.39849 7.77251 7.39849 7.4648C7.39849 7.15708 7.51346 6.889 7.69852 6.7647C9.18596 5.76594 10.0052 4.3938 10.0053 2.90103V1.42556H10.8283C11.0936 1.42556 11.3086 1.21052 11.3086 0.94518C11.3086 0.67984 11.0936 0.464844 10.8283 0.464844H1.17174C0.906497 0.464844 0.691406 0.67984 0.691406 0.945133C0.691406 1.21047 0.906497 1.42552 1.17174 1.42552H1.99491V2.90108C1.99491 4.39385 2.81403 5.76599 4.30166 6.76475C4.48663 6.88905 4.6016 7.15713 4.6016 7.46484C4.6016 7.77261 4.48663 8.04073 4.30157 8.16503C2.81403 9.16379 1.99491 10.5359 1.99491 12.0287V13.5042H1.17174C0.906497 13.5042 0.691406 13.7193 0.691406 13.9846C0.691406 14.2499 0.906497 14.4649 1.17174 14.4649H10.8283C11.0935 14.4649 11.3086 14.2499 11.3086 13.9846C11.3086 13.7192 11.0936 13.5041 10.8283 13.5041ZM2.95564 12.0287C2.95564 10.4601 4.13437 9.43441 4.8371 8.96265C5.29118 8.65781 5.56232 8.09786 5.56232 7.46484C5.56232 6.83187 5.29118 6.27192 4.8371 5.96713C4.13437 5.49537 2.95564 4.46964 2.95564 2.90113V1.42556H9.04446L9.04436 2.90113C9.04436 4.46964 7.86563 5.49537 7.16299 5.96703C6.70881 6.27197 6.43767 6.83192 6.43767 7.46484C6.43767 8.09791 6.70881 8.65777 7.16289 8.96265C7.86563 9.43441 9.04436 10.4601 9.04446 12.0287V13.5041H2.95564V12.0287Z" fill="#64666C"/>
</svg>
