<svg width="13" height="13" viewBox="0 0 13 13" fill="#212322" xmlns="http://www.w3.org/2000/svg">
<g >
<path clip-rule="evenodd" d="M2.9 6.64365H3.5C4.82549 6.64365 5.9 7.71817 5.9 9.04365V10.2437C5.9 11.5691 4.82549 12.6437 3.5 12.6437H2.9C1.57452 12.6437 0.500002 11.5691 0.500002 10.2437V9.04365C0.500002 7.71817 1.57452 6.64365 2.9 6.64365ZM2.9 7.84358C2.23726 7.84358 1.7 8.38084 1.7 9.04358V10.2436C1.7 10.9063 2.23726 11.4436 2.9 11.4436H3.5C4.16274 11.4436 4.7 10.9063 4.7 10.2436V9.04358C4.7 8.38084 4.16274 7.84358 3.5 7.84358H2.9ZM2.6 0.643555C3.7598 0.643555 4.7 1.58376 4.7 2.74355V3.34355C4.7 4.50335 3.7598 5.44355 2.6 5.44355C1.4402 5.44355 0.5 4.50335 0.5 3.34355V2.74355C0.5 1.58376 1.4402 0.643555 2.6 0.643555ZM2.6 1.84351C2.10294 1.84351 1.7 2.24645 1.7 2.74351V3.34351C1.7 3.84056 2.10294 4.24351 2.6 4.24351C3.09706 4.24351 3.5 3.84056 3.5 3.34351V2.74351C3.5 2.24645 3.09706 1.84351 2.6 1.84351ZM9.5 6.04358H10.1C11.4255 6.04358 12.5 7.1181 12.5 8.44358V10.2436C12.5 11.5691 11.4255 12.6436 10.1 12.6436H9.5C8.17452 12.6436 7.1 11.5691 7.1 10.2436V8.44358C7.1 7.1181 8.17452 6.04358 9.5 6.04358ZM9.5 7.24351C8.83726 7.24351 8.3 7.78076 8.3 8.44351V10.2435C8.3 10.9062 8.83726 11.4435 9.5 11.4435H10.1C10.7627 11.4435 11.3 10.9062 11.3 10.2435V8.44351C11.3 7.78076 10.7627 7.24351 10.1 7.24351H9.5ZM8 0.643579H10.4C11.5598 0.643579 12.5 1.58378 12.5 2.74358C12.5 3.90338 11.5598 4.84358 10.4 4.84358H8C6.8402 4.84358 5.9 3.90338 5.9 2.74358C5.9 1.58378 6.8402 0.643579 8 0.643579ZM8 1.84351C7.50294 1.84351 7.1 2.24645 7.1 2.74351C7.1 3.24056 7.50294 3.64351 8 3.64351H10.4C10.8971 3.64351 11.3 3.24056 11.3 2.74351C11.3 2.24645 10.8971 1.84351 10.4 1.84351H8Z" fill="#212322"/>
</g>
</svg>
