<svg width="15" height="15" viewBox="0 0 15 15" fill="none" xmlns="http://www.w3.org/2000/svg">
<path fill-rule="evenodd" clip-rule="evenodd" d="M4.25825 4.2568V4.25642C4.25825 3.35649 5.04031 2.62695 6.00503 2.62695H8.33407C9.29879 2.62695 10.0808 3.35649 10.0808 4.25642V4.2568H11.8277C12.7924 4.2568 13.5745 4.98634 13.5745 5.88627V11.3178C13.5745 12.2178 12.7924 12.9473 11.8277 12.9473H2.51155C1.54683 12.9473 0.764771 12.2178 0.764771 11.3178V5.88627C0.764771 4.98634 1.54683 4.2568 2.51155 4.2568H4.25825ZM5.4228 4.25582C5.4228 3.95585 5.68348 3.71267 6.00506 3.71267H8.3341C8.65567 3.71267 8.91636 3.95585 8.91636 4.25582H5.4228ZM2.51158 5.34371C2.19001 5.34371 1.92932 5.58689 1.92932 5.88687V11.3184C1.92932 11.6184 2.19001 11.8616 2.51158 11.8616H2.80286V5.34371H2.51158ZM10.3722 11.8616H3.96738V5.34371H10.3722V11.8616ZM11.5367 11.8616H11.8277C12.1493 11.8616 12.41 11.6184 12.41 11.3184V5.88687C12.41 5.58689 12.1493 5.34371 11.8277 5.34371H11.5367V11.8616Z" fill="#E0BA5B"/>
</svg>
