<svg width="11" height="12" viewBox="0 0 11 12" fill="none" xmlns="http://www.w3.org/2000/svg">
<path fill-rule="evenodd" clip-rule="evenodd" d="M0.493729 4.90182C0.493729 2.23899 2.84203 0.0839844 5.73407 0.0839844C8.62612 0.0839844 10.9744 2.23899 10.9744 4.90182C10.9744 6.21712 10.3976 7.44901 9.39942 8.34503L6.14243 11.3343C5.91585 11.5423 5.55234 11.5423 5.32574 11.3343L2.06429 8.3413C1.06693 7.44153 0.493729 6.21306 0.493729 4.90182ZM8.58736 7.56609C9.36487 6.86815 9.80992 5.9176 9.80992 4.90144C9.80992 2.84259 7.98723 1.16992 5.7341 1.16992C3.48097 1.16992 1.65828 2.84259 1.65828 4.90144C1.65828 5.91448 2.10059 6.86242 2.87743 7.56328L5.73408 10.1848L8.58736 7.56609ZM5.73408 7.14506C7.02037 7.14506 8.06312 6.17234 8.06312 4.97243C8.06312 3.77252 7.02037 2.7998 5.73408 2.7998C4.44778 2.7998 3.40503 3.77252 3.40503 4.97243C3.40503 6.17234 4.44778 7.14506 5.73408 7.14506ZM5.73411 6.05837C5.09096 6.05837 4.56958 5.57201 4.56958 4.97206C4.56958 4.3721 5.09096 3.88574 5.73411 3.88574C6.37725 3.88574 6.89863 4.3721 6.89863 4.97206C6.89863 5.57201 6.37725 6.05837 5.73411 6.05837Z" fill="#E0BA5B"/>
</svg>
