<svg width="13" height="14" viewBox="0 0 13 14" fill="none" xmlns="http://www.w3.org/2000/svg">
<path fill-rule="evenodd" clip-rule="evenodd" d="M7.35591 2.95045C7.35814 2.95103 7.36036 2.95161 7.36259 2.95219L7.35591 2.95045ZM7.35591 2.95045C7.35939 2.95129 7.36287 2.95216 7.36635 2.95307L7.35591 2.95045ZM5.80153 2.88253C6.08401 2.16652 6.86342 1.75827 7.62673 1.958C8.39127 2.15806 8.87115 2.8978 8.76466 3.66172C9.85977 4.55231 10.3963 6.03117 10.0156 7.48575L9.3624 9.98221L9.76267 11.8463C9.84312 12.2209 9.50035 12.5488 9.12966 12.4518L6.56071 11.7796C6.20416 12.3059 5.54245 12.5768 4.89242 12.4067C4.24238 12.2366 3.79813 11.6763 3.74509 11.0428L1.16911 10.3688C0.798421 10.2718 0.660174 9.81803 0.913799 9.53082L2.17579 8.10171L2.82903 5.60525C3.21045 4.14759 4.40678 3.11976 5.80153 2.88253ZM5.15279 11.4116C5.14613 11.4098 5.13954 11.408 5.13301 11.406L5.17278 11.4164C5.16612 11.4149 5.15945 11.4133 5.15279 11.4116ZM8.33166 10.0785L8.58219 11.2453L2.23855 9.58533L3.02843 8.69085C3.08172 8.6305 3.1201 8.5585 3.14047 8.48062L3.82471 5.8657C4.2002 4.43074 5.66785 3.57186 7.10282 3.94734C8.53779 4.32283 9.39667 5.79049 9.02118 7.22545L8.33695 9.84037C8.31657 9.91824 8.31476 9.99982 8.33166 10.0785Z" fill="#212322"/>
</svg>
