<svg width="57" height="53" viewBox="0 0 57 53" fill="none" xmlns="http://www.w3.org/2000/svg">
<g clip-path="url(#clip0_1076_7302)">
<path d="M40.1008 20.364H41.7401V24.4367L45.8128 20.364H55.0884C55.4634 20.3627 55.8226 20.2131 56.0877 19.948C56.3529 19.6829 56.5024 19.3237 56.5037 18.9488V10.5793C56.5024 10.2044 56.3529 9.84519 56.0877 9.58007C55.8226 9.31494 55.4634 9.1654 55.0884 9.16406H40.1008C39.7259 9.1654 39.3667 9.31494 39.1015 9.58007C38.8364 9.84519 38.6869 10.2044 38.6855 10.5793V18.9488C38.6869 19.3237 38.8364 19.6829 39.1015 19.948C39.3667 20.2131 39.7259 20.3627 40.1008 20.364Z" fill="#E0BA5B"/>
<path d="M42.5 13.2353C42.9217 13.2353 43.2636 12.8934 43.2636 12.4716C43.2636 12.0499 42.9217 11.708 42.5 11.708C42.0782 11.708 41.7363 12.0499 41.7363 12.4716C41.7363 12.8934 42.0782 13.2353 42.5 13.2353Z" fill="white"/>
<path d="M46.0664 13.2353C46.4881 13.2353 46.83 12.8934 46.83 12.4716C46.83 12.0499 46.4881 11.708 46.0664 11.708C45.6446 11.708 45.3027 12.0499 45.3027 12.4716C45.3027 12.8934 45.6446 13.2353 46.0664 13.2353Z" fill="white"/>
<path d="M49.6347 13.2353C50.0565 13.2353 50.3984 12.8934 50.3984 12.4716C50.3984 12.0499 50.0565 11.708 49.6347 11.708C49.213 11.708 48.8711 12.0499 48.8711 12.4716C48.8711 12.8934 49.213 13.2353 49.6347 13.2353Z" fill="white"/>
<path d="M35.7365 26.4727H29.4289C29.238 27.315 28.7664 28.0674 28.0916 28.6064C27.4167 29.1454 26.5787 29.439 25.715 29.439C24.8514 29.439 24.0133 29.1454 23.3385 28.6064C22.6637 28.0674 22.1921 27.315 22.0012 26.4727H15.8056C13.7722 26.4727 11.8221 27.2804 10.3842 28.7182C8.94642 30.156 8.13867 32.1062 8.13867 34.1395V41.7453H43.2659V34.0021C43.2659 32.0052 42.4727 30.09 41.0606 28.678C39.6486 27.2659 37.7334 26.4727 35.7365 26.4727Z" fill="#E0BA5B"/>
<path d="M33.3743 33.7516L30.1365 30.5138C29.8667 30.2242 29.7198 29.8413 29.7268 29.4456C29.7338 29.05 29.894 28.6725 30.1739 28.3926C30.4537 28.1128 30.8312 27.9525 31.2269 27.9456C31.6226 27.9386 32.0055 28.0854 32.295 28.3552L35.5328 31.593C35.8026 31.8825 35.9495 32.2655 35.9425 32.6611C35.9355 33.0568 35.7752 33.4343 35.4954 33.7141C35.2156 33.994 34.8381 34.1542 34.4424 34.1612C34.0467 34.1682 33.6638 34.0213 33.3743 33.7516Z" fill="white"/>
<path d="M53.6261 18.3279H44.2894L40.2167 22.4006V18.3279H38.5163C38.1571 18.3279 37.8127 18.1852 37.5587 17.9313C37.3048 17.6773 37.1621 17.3329 37.1621 16.9737V8.48211C37.1621 8.12296 37.3048 7.77852 37.5587 7.52456C37.8127 7.2706 38.1571 7.12793 38.5163 7.12793H53.6261C53.9853 7.12793 54.3297 7.2706 54.5837 7.52456C54.8376 7.77852 54.9803 8.12296 54.9803 8.48211V16.9737C54.9803 17.3329 54.8376 17.6773 54.5837 17.9313C54.3297 18.1852 53.9853 18.3279 53.6261 18.3279Z" stroke="black" stroke-width="1.01818" stroke-linecap="round" stroke-linejoin="round"/>
<path d="M49.3773 40.2188H1.01367V43.7824H49.3773V40.2188Z" stroke="black" stroke-width="1.01818" stroke-linecap="round" stroke-linejoin="round"/>
<path d="M45.8112 51.9267V43.7812H5.08398V51.9267" stroke="black" stroke-width="1.01818" stroke-linecap="round" stroke-linejoin="round"/>
<path d="M24.8405 0.762697H23.5169C22.6676 0.762028 21.8266 0.928804 21.0419 1.25348C20.2571 1.57817 19.5441 2.05438 18.9436 2.65489C18.3431 3.25539 17.8669 3.9684 17.5422 4.75312C17.2175 5.53785 17.0508 6.37888 17.0514 7.22813V13.0012C17.0266 14.8667 17.719 16.6705 18.9855 18.0403C20.2521 19.4102 21.9963 20.2415 23.858 20.3626C24.8227 20.4061 25.7862 20.253 26.69 19.9128C27.5938 19.5725 28.419 19.0521 29.1156 18.3832C29.8121 17.7143 30.3655 16.9108 30.742 16.0215C31.1185 15.1322 31.3104 14.1756 31.306 13.2099V7.22813C31.3066 6.37888 31.1399 5.53785 30.8152 4.75312C30.4905 3.9684 30.0143 3.25539 29.4138 2.65489C28.8133 2.05438 28.1003 1.57817 27.3155 1.25348C26.5308 0.928804 25.6898 0.762028 24.8405 0.762697Z" stroke="black" stroke-width="1.52727" stroke-linecap="round" stroke-linejoin="round"/>
<path d="M30.541 9.16465H24.5032C23.6675 9.16366 22.8448 8.95694 22.1079 8.56273C21.371 8.16852 20.7424 7.59895 20.2777 6.9043L17.6406 8.03447" stroke="black" stroke-width="1.01818" stroke-linecap="round" stroke-linejoin="round"/>
<path d="M31.8242 13.8664C32.4237 13.8664 32.9986 13.6283 33.4225 13.2044C33.8464 12.7805 34.0846 12.2055 34.0846 11.6061C34.0846 11.0066 33.8464 10.4316 33.4225 10.0077C32.9986 9.58385 32.4237 9.3457 31.8242 9.3457" stroke="black" stroke-width="1.01818" stroke-linecap="round" stroke-linejoin="round"/>
<path d="M16.2858 13.8664C15.6863 13.8664 15.1114 13.6283 14.6875 13.2044C14.2636 12.7805 14.0254 12.2055 14.0254 11.6061C14.0254 11.0066 14.2636 10.4316 14.6875 10.0077C15.1114 9.58385 15.6863 9.3457 16.2858 9.3457" stroke="black" stroke-width="1.01818" stroke-linecap="round" stroke-linejoin="round"/>
<path d="M28.2509 19.6022V23.5069C28.2664 24.5642 27.8805 25.5881 27.171 26.3722C26.4615 27.1563 25.4812 27.6423 24.4277 27.7323C23.8722 27.7664 23.3157 27.6863 22.7924 27.497C22.2691 27.3076 21.7902 27.013 21.3852 26.6314C20.9801 26.2497 20.6576 25.7892 20.4375 25.278C20.2175 24.7669 20.1044 24.2161 20.1055 23.6596V19.5869" stroke="black" stroke-width="1.52727" stroke-linecap="round" stroke-linejoin="round"/>
<path d="M6.35938 39.4553V32.0735C6.35938 29.9807 7.19074 27.9736 8.67057 26.4938C10.1504 25.014 12.1575 24.1826 14.2503 24.1826H19.5957" stroke="black" stroke-width="1.52727" stroke-linecap="round" stroke-linejoin="round"/>
<path d="M41.9961 39.4553V32.0735C41.9961 29.9807 41.1648 27.9736 39.6849 26.4938C38.2051 25.014 36.198 24.1826 34.1052 24.1826H28.7598" stroke="black" stroke-width="1.52727" stroke-linecap="round" stroke-linejoin="round"/>
<path d="M14.25 36.1455V39.7091" stroke="black" stroke-width="1.01818" stroke-linecap="round" stroke-linejoin="round"/>
<path d="M35.377 34.3633V39.9633" stroke="black" stroke-width="1.52727" stroke-linecap="round" stroke-linejoin="round"/>
<path d="M33.3743 33.7516L30.1365 30.5138C29.8667 30.2242 29.7198 29.8413 29.7268 29.4456C29.7338 29.05 29.894 28.6725 30.1739 28.3926C30.4537 28.1128 30.8312 27.9525 31.2269 27.9456C31.6226 27.9386 32.0055 28.0854 32.295 28.3552L35.5328 31.593C35.8026 31.8825 35.9495 32.2655 35.9425 32.6611C35.9355 33.0568 35.7752 33.4343 35.4954 33.7141C35.2156 33.994 34.8381 34.1542 34.4424 34.1612C34.0467 34.1682 33.6638 34.0213 33.3743 33.7516Z" stroke="black" stroke-width="1.01818" stroke-linecap="round" stroke-linejoin="round"/>
</g>
<defs>
<clipPath id="clip0_1076_7302">
<rect width="56" height="52.4362" fill="white" transform="translate(0.5)"/>
</clipPath>
</defs>
</svg>
