<svg width="57" height="56" viewBox="0 0 57 56" fill="none" xmlns="http://www.w3.org/2000/svg">
<g clip-path="url(#clip0_1076_7369)">
<path d="M26.6752 45.1651C37.4466 45.1651 46.1786 36.4331 46.1786 25.6616C46.1786 14.8902 37.4466 6.1582 26.6752 6.1582C15.9038 6.1582 7.17188 14.8902 7.17188 25.6616C7.17188 36.4331 15.9038 45.1651 26.6752 45.1651Z" fill="#E0BA5B"/>
<path d="M41.0478 24.635C41.0478 24.635 33.924 33.8734 25.1372 33.8734C16.3504 33.8734 9.22656 24.635 9.22656 24.635C9.22656 24.635 16.3504 15.3965 25.1372 15.3965C33.924 15.3965 41.0478 24.635 41.0478 24.635Z" fill="#EDF2F8"/>
<path d="M26.6746 31.8189C30.0761 31.8189 32.8335 29.0615 32.8335 25.66C32.8335 22.2584 30.0761 19.501 26.6746 19.501C23.2731 19.501 20.5156 22.2584 20.5156 25.66C20.5156 29.0615 23.2731 31.8189 26.6746 31.8189Z" fill="#E0BA5B"/>
<path d="M25.1381 27.7127C26.8388 27.7127 28.2176 26.334 28.2176 24.6332C28.2176 22.9324 26.8388 21.5537 25.1381 21.5537C23.4373 21.5537 22.0586 22.9324 22.0586 24.6332C22.0586 26.334 23.4373 27.7127 25.1381 27.7127Z" fill="#212322"/>
<path d="M23.3417 24.12C24.0504 24.12 24.6248 23.5455 24.6248 22.8368C24.6248 22.1282 24.0504 21.5537 23.3417 21.5537C22.6331 21.5537 22.0586 22.1282 22.0586 22.8368C22.0586 23.5455 22.6331 24.12 23.3417 24.12Z" fill="white"/>
<path d="M25.1374 48.5006C38.3183 48.5006 49.0034 37.8155 49.0034 24.6346C49.0034 11.4537 38.3183 0.768555 25.1374 0.768555C11.9566 0.768555 1.27148 11.4537 1.27148 24.6346C1.27148 37.8155 11.9566 48.5006 25.1374 48.5006Z" stroke="#212322" stroke-width="1.53974" stroke-linecap="round" stroke-linejoin="round"/>
<path d="M25.1381 44.1367C35.9095 44.1367 44.6415 35.4048 44.6415 24.6333C44.6415 13.8619 35.9095 5.12988 25.1381 5.12988C14.3667 5.12988 5.63477 13.8619 5.63477 24.6333C5.63477 35.4048 14.3667 44.1367 25.1381 44.1367Z" stroke="#212322" stroke-width="1.02649" stroke-linecap="round" stroke-linejoin="round"/>
<path d="M37.3555 45.9035L38.382 46.93C39.17 47.7163 40.2378 48.158 41.3511 48.158C42.4644 48.158 43.5322 47.7163 44.3202 46.93L47.8206 43.4296C48.6069 42.6416 49.0486 41.5738 49.0486 40.4605C49.0486 39.3472 48.6069 38.2794 47.8206 37.4913L46.7941 36.4648" stroke="#212322" stroke-width="1.53974" stroke-linecap="round" stroke-linejoin="round"/>
<path d="M43.5254 47.7178L48.6063 42.6369L54.8666 48.8973C55.4201 49.4507 55.731 50.2014 55.731 50.9841C55.731 51.7668 55.4201 52.5174 54.8666 53.0709L53.963 53.9745C53.4095 54.528 52.6589 54.8389 51.8762 54.8389C51.0935 54.8389 50.3428 54.528 49.7894 53.9745L43.529 47.7141L43.5254 47.7178Z" stroke="#212322" stroke-width="1.53974" stroke-linecap="round" stroke-linejoin="round"/>
<path d="M41.0478 24.635C41.0478 24.635 33.924 33.8734 25.1372 33.8734C16.3504 33.8734 9.22656 24.635 9.22656 24.635C9.22656 24.635 16.3504 15.3965 25.1372 15.3965C33.924 15.3965 41.0478 24.635 41.0478 24.635Z" stroke="#212322" stroke-width="1.02649" stroke-linecap="round" stroke-linejoin="round"/>
<path d="M25.1375 30.7935C28.539 30.7935 31.2964 28.0361 31.2964 24.6346C31.2964 21.2331 28.539 18.4756 25.1375 18.4756C21.736 18.4756 18.9785 21.2331 18.9785 24.6346C18.9785 28.0361 21.736 30.7935 25.1375 30.7935Z" stroke="#212322" stroke-width="1.02649" stroke-linecap="round" stroke-linejoin="round"/>
</g>
<defs>
<clipPath id="clip0_1076_7369">
<rect width="56.0003" height="55.6156" fill="white" transform="translate(0.5)"/>
</clipPath>
</defs>
</svg>
