<svg width="59" height="60" viewBox="0 0 59 60" fill="none" xmlns="http://www.w3.org/2000/svg">
<g clip-path="url(#clip0_1139_12466)">
<path d="M35.1547 5.66016V9.05638H18.1735V7.35827H15.3433V5.66016H5.7207V54.9054H41.9471V5.66016H35.1547Z" fill="#ECF1F5"/>
<path d="M12.9551 20.5129L15.0211 22.9922L18.74 18.0337" stroke="black" stroke-width="1.69811" stroke-linecap="round" stroke-linejoin="round"/>
<path d="M24.4004 18.6792H37.4193" stroke="white" stroke-width="1.13208" stroke-linecap="round" stroke-linejoin="round"/>
<path d="M24.4004 24.9058H31.7589" stroke="white" stroke-width="1.13208" stroke-linecap="round" stroke-linejoin="round"/>
<path d="M12.9551 36.9282L15.0211 39.4074L18.74 34.4546" stroke="black" stroke-width="1.69811" stroke-linecap="round" stroke-linejoin="round"/>
<path d="M24.4004 35.0942H32.891" stroke="white" stroke-width="1.13208" stroke-linecap="round" stroke-linejoin="round"/>
<path d="M24.4004 41.3208H33.457" stroke="white" stroke-width="1.13208" stroke-linecap="round" stroke-linejoin="round"/>
<path d="M54.9656 46.6982L54.3995 44.4341L55.9109 34.9869C56.3971 31.9578 55.7481 28.8557 54.0882 26.2756L46.475 14.4341V34.8114C46.2294 34.9107 45.9653 34.9558 45.7007 34.9437C45.4361 34.9315 45.1772 34.8623 44.9418 34.7408C44.7064 34.6194 44.5 34.4485 44.3367 34.2399C44.1734 34.0313 44.0571 33.7899 43.9958 33.5322L42.6203 26.9945C42.5263 26.5964 42.3548 26.2208 42.1156 25.889C41.8763 25.5572 41.5741 25.2758 41.2262 25.0608C40.8782 24.8459 40.4913 24.7015 40.0876 24.6361C39.6839 24.5706 39.2712 24.5853 38.8731 24.6794C38.4751 24.7734 38.0994 24.9449 37.7677 25.1841C37.4359 25.4233 37.1545 25.7255 36.9395 26.0735C36.7245 26.4214 36.5802 26.8083 36.5148 27.2121C36.4493 27.6158 36.464 28.0285 36.558 28.4265L38.4316 37.0529V37.6473C38.5004 40.9133 39.8288 44.0264 42.1392 46.336L42.5014 46.6982L43.6335 50.0945L54.9656 46.6982Z" fill="white"/>
<path d="M14.4954 5.37744H1.47656V59.151H46.1935V55.7548" stroke="black" stroke-width="1.69811" stroke-linecap="round" stroke-linejoin="round"/>
<path d="M46.1927 34.2454V5.37744H33.1738" stroke="black" stroke-width="1.69811" stroke-linecap="round" stroke-linejoin="round"/>
<path d="M46.1925 34.8116C45.947 34.9109 45.6828 34.956 45.4182 34.9438C45.1536 34.9316 44.8947 34.8624 44.6593 34.741C44.4239 34.6195 44.2175 34.4486 44.0542 34.24C43.891 34.0314 43.7747 33.79 43.7133 33.5323L42.3378 26.9946C42.2619 26.5791 42.1023 26.1834 41.8686 25.8316C41.6349 25.4797 41.332 25.1791 40.9784 24.9481C40.6249 24.717 40.228 24.5603 39.8119 24.4875C39.3959 24.4147 38.9693 24.4273 38.5583 24.5246C38.1473 24.6219 37.7604 24.8018 37.4211 25.0533C37.0818 25.3049 36.7972 25.6229 36.5848 25.9879C36.3723 26.353 36.2363 26.7574 36.1851 27.1767C36.1339 27.5959 36.1685 28.0212 36.2869 28.4267L38.1605 37.0531V37.6474C38.2292 40.9135 39.5576 44.0266 41.868 46.3361L42.2303 46.6984L43.3624 50.0946" stroke="black" stroke-width="1.69811" stroke-linecap="round" stroke-linejoin="round"/>
<path d="M46.1934 14.4341L53.8349 26.2756C55.4948 28.8557 56.1438 31.9578 55.6575 34.9869L54.1179 44.4341L54.6839 46.6982" stroke="black" stroke-width="1.69811" stroke-linecap="round" stroke-linejoin="round"/>
<path d="M56.2255 46.9936L42.2832 51.105L43.6024 55.5787L57.5447 51.4673L56.2255 46.9936Z" stroke="black" stroke-width="1.69811" stroke-linecap="round" stroke-linejoin="round"/>
<path d="M18.7406 22.6413V25.4715H10.25V16.981H15.9104" stroke="white" stroke-width="1.13208" stroke-linecap="round" stroke-linejoin="round"/>
<path d="M18.7406 39.0564V41.8866H10.25V33.396H15.9104" stroke="white" stroke-width="1.13208" stroke-linecap="round" stroke-linejoin="round"/>
<path d="M28.0794 3.11327V0.849121H19.5888V3.11327H15.0605V7.64157H32.6077V3.11327H28.0794Z" stroke="black" stroke-width="1.69811" stroke-linecap="round" stroke-linejoin="round"/>
</g>
<defs>
<clipPath id="clip0_1139_12466">
<rect width="57.7472" height="60" fill="white" transform="translate(0.626953)"/>
</clipPath>
</defs>
</svg>
