<svg width="57" height="49" viewBox="0 0 57 49" fill="none" xmlns="http://www.w3.org/2000/svg">
<g clip-path="url(#clip0_1076_7220)">
<path d="M4.78024 5.57031H40.0882C40.3568 5.57031 40.6144 5.677 40.8043 5.86692C40.9942 6.05683 41.1009 6.3144 41.1009 6.58298V11.637H3.76758V6.58298C3.76758 6.3144 3.87427 6.05683 4.06418 5.86692C4.25409 5.677 4.51167 5.57031 4.78024 5.57031Z" fill="#E0BA5B"/>
<path d="M13.5707 17.2363H7.9707V22.8363H13.5707V17.2363Z" stroke="#212322" stroke-width="0.933333" stroke-linecap="round" stroke-linejoin="round"/>
<path d="M17.7676 22.8363V17.2363H23.3676" stroke="#212322" stroke-width="0.933333" stroke-linecap="round" stroke-linejoin="round"/>
<path d="M13.5707 27.5029H7.9707V33.1029H13.5707V27.5029Z" stroke="#212322" stroke-width="0.933333" stroke-linecap="round" stroke-linejoin="round"/>
<path d="M39.9378 48.5025C49.0873 48.5025 56.5044 41.0853 56.5044 31.9358C56.5044 22.7863 49.0873 15.3691 39.9378 15.3691C30.7882 15.3691 23.3711 22.7863 23.3711 31.9358C23.3711 41.0853 30.7882 48.5025 39.9378 48.5025Z" fill="#E0BA5B"/>
<path d="M43.4332 23.7696L42.0332 20.5029L48.5665 13.5029L49.9665 17.2363L43.4332 23.7696Z" fill="white"/>
<path d="M53.7022 18.1695L46.7022 25.1695L43.4355 23.7695L50.4355 16.7695L53.7022 18.1695Z" fill="white"/>
<path d="M24.5384 42.203H1.20508V4.69239C1.20508 4.36812 1.3339 4.05714 1.5632 3.82784C1.79249 3.59855 2.10347 3.46973 2.42774 3.46973H7.73841" stroke="#212322" stroke-width="1.4" stroke-linecap="round" stroke-linejoin="round"/>
<path d="M32.4707 3.46973H37.7814C38.1056 3.46973 38.4166 3.59855 38.6459 3.82784C38.8752 4.05714 39.004 4.36812 39.004 4.69239V13.2697" stroke="#212322" stroke-width="1.4" stroke-linecap="round" stroke-linejoin="round"/>
<path d="M22.2051 3.46973H28.2717" stroke="#212322" stroke-width="1.4" stroke-linecap="round" stroke-linejoin="round"/>
<path d="M11.9355 3.46973H18.0022" stroke="#212322" stroke-width="1.4" stroke-linecap="round" stroke-linejoin="round"/>
<path d="M1.43555 9.76953H38.7689" stroke="#212322" stroke-width="0.933333" stroke-linecap="round" stroke-linejoin="round"/>
<path d="M1.43555 39.1709H21.9689" stroke="#212322" stroke-width="0.933333" stroke-linecap="round" stroke-linejoin="round"/>
<path d="M10.2771 1.1377H9.39974C8.73995 1.1377 8.20508 1.67257 8.20508 2.33236V5.07636C8.20508 5.73616 8.73995 6.27103 9.39974 6.27103H10.2771C10.9369 6.27103 11.4717 5.73616 11.4717 5.07636V2.33236C11.4717 1.67257 10.9369 1.1377 10.2771 1.1377Z" stroke="#212322" stroke-width="1.4" stroke-linecap="round" stroke-linejoin="round"/>
<path d="M29.928 6.26953H30.8053C31.4651 6.26953 32 5.73466 32 5.07487V2.33087C32 1.67107 31.4651 1.1362 30.8053 1.1362H29.928C29.2682 1.1362 28.7333 1.67107 28.7333 2.33087V5.07487C28.7333 5.73466 29.2682 6.26953 29.928 6.26953Z" stroke="#212322" stroke-width="1.4" stroke-linecap="round" stroke-linejoin="round"/>
<path d="M19.6624 6.26953H20.5397C21.1995 6.26953 21.7344 5.73466 21.7344 5.07487V2.33087C21.7344 1.67107 21.1995 1.1362 20.5397 1.1362H19.6624C19.0026 1.1362 18.4677 1.67107 18.4677 2.33087V5.07487C18.4677 5.73466 19.0026 6.26953 19.6624 6.26953Z" stroke="#212322" stroke-width="1.4" stroke-linecap="round" stroke-linejoin="round"/>
<path d="M51.1691 21.2968C53.4387 24.7355 54.3654 28.8883 53.7732 32.9657C53.181 37.043 51.1112 40.7606 47.9572 43.4116C44.8032 46.0626 40.785 47.4621 36.6666 47.3441C32.5481 47.2261 28.6166 45.5988 25.6196 42.7716C22.6225 39.9444 20.7689 36.1144 20.4111 32.0098C20.0534 27.9053 21.2164 23.8124 23.6791 20.5092C26.1418 17.2061 29.7324 14.9232 33.7683 14.0944C37.8043 13.2656 42.004 13.9489 45.5691 16.0142" stroke="#212322" stroke-width="1.4" stroke-linecap="round" stroke-linejoin="round"/>
<path d="M47.1006 24.9367C48.4295 27.3087 48.8677 30.0773 48.3363 32.7438C47.8048 35.4103 46.3386 37.7993 44.2018 39.4806C42.0651 41.1619 39.3981 42.0248 36.6815 41.914C33.9648 41.8033 31.377 40.726 29.3842 38.8763C27.3914 37.0266 26.1246 34.5261 25.812 31.8252C25.4994 29.1243 26.1616 26.4006 27.6793 24.1447C29.1969 21.8887 31.4703 20.2489 34.0899 19.5205C36.7094 18.7922 39.5029 19.0232 41.9673 20.172" stroke="white" stroke-width="0.933333" stroke-linejoin="round" stroke-dasharray="1.4 1.4"/>
<path d="M37.1361 36.3698C40.3577 36.3698 42.9694 33.7581 42.9694 30.5365C42.9694 27.3148 40.3577 24.7031 37.1361 24.7031C33.9144 24.7031 31.3027 27.3148 31.3027 30.5365C31.3027 33.7581 33.9144 36.3698 37.1361 36.3698Z" stroke="white" stroke-width="0.933333" stroke-linecap="round" stroke-linejoin="round"/>
<path d="M36.668 31.0016L51.6013 15.6016" stroke="#212322" stroke-width="1.4" stroke-linecap="round" stroke-linejoin="round"/>
<path d="M49.9665 16.7699L48.4499 13.4473L42.0332 20.5033L43.4332 23.7699L46.6999 25.1699L53.6999 18.1699L49.9665 16.7699Z" stroke="#212322" stroke-width="0.933333" stroke-linecap="round" stroke-linejoin="round"/>
</g>
<defs>
<clipPath id="clip0_1076_7220">
<rect width="56" height="48.0666" fill="white" transform="translate(0.5 0.436523)"/>
</clipPath>
</defs>
</svg>
