<svg width="17" height="20" viewBox="0 0 17 20" fill="none" xmlns="http://www.w3.org/2000/svg">
<path fill-rule="evenodd" clip-rule="evenodd" d="M10.782 2.57704C10.6223 1.23822 9.48296 0.200195 8.10115 0.200195C6.71934 0.200195 5.57997 1.23823 5.42029 2.57705C3.1679 3.59812 1.60117 5.8662 1.60117 8.5002V13.0161L0.0977239 15.9946C-0.204427 16.5933 0.230634 17.3002 0.901173 17.3002H5.55479C5.92544 18.3489 6.92556 19.1002 8.10115 19.1002C9.27675 19.1002 10.2769 18.3489 10.6475 17.3002H15.3012C15.9717 17.3002 16.4068 16.5933 16.1046 15.9946L14.6012 13.0161V8.5002C14.6012 5.86618 13.0344 3.5981 10.782 2.57704ZM12.8974 13.636L13.8384 15.5002H2.36328L3.30429 13.636C3.36777 13.5102 3.40085 13.3713 3.40085 13.2304V8.50024C3.40085 5.90451 5.50511 3.80024 8.10085 3.80024C10.6966 3.80024 12.8008 5.90451 12.8008 8.50024V13.2304C12.8008 13.3713 12.8339 13.5102 12.8974 13.636Z" fill="#212322"/>
</svg>
