<svg width="40" height="41" viewBox="0 0 40 41" fill="none" xmlns="http://www.w3.org/2000/svg">
<g clip-path="url(#clip0_297_10669)">
<path d="M38.6316 11.025L28.4411 0.435977C28.296 0.285352 28.0959 0.200195 27.8868 0.200195H12.6985C10.9988 0.200195 9.61586 1.58254 9.61586 3.2816V14.0464H3.46062C2.18891 14.0464 1.1543 15.0807 1.1543 16.3521V27.8946C1.1543 29.1659 2.18891 30.2002 3.46062 30.2002H9.61586V37.1242C9.61586 38.8203 10.9988 40.2002 12.6985 40.2002H35.764C37.4637 40.2002 38.8466 38.8211 38.8466 37.1259V11.5584C38.8466 11.3595 38.7695 11.1683 38.6316 11.025ZM28.0774 2.27684L36.443 10.9694H28.0774V2.27684ZM3.46062 28.6618C3.03719 28.6618 2.69281 28.3176 2.69281 27.8946V16.3521C2.69281 15.929 3.03727 15.5848 3.46062 15.5848H24.2327C24.6561 15.5848 25.0005 15.929 25.0005 16.3521V27.8946C25.0005 28.3176 24.656 28.6618 24.2327 28.6618H3.46062ZM37.3081 37.1259C37.3081 37.9728 36.6154 38.6618 35.7639 38.6618H12.6985C11.847 38.6618 11.1543 37.9721 11.1543 37.1243V30.2002H24.2327C25.5044 30.2002 26.539 29.1659 26.539 27.8946V16.3521C26.539 15.0807 25.5044 14.0464 24.2327 14.0464H11.1543V3.2816C11.1543 2.43074 11.847 1.73863 12.6985 1.73863H26.5389V11.7386C26.5389 12.1635 26.8834 12.5079 27.3081 12.5079H37.3081V37.1259Z" fill="#14A077"/>
<path d="M10.3504 19.7235C10.095 19.3914 9.77797 19.1758 9.39937 19.0767C9.15297 19.0106 8.62414 18.9775 7.81281 18.9775H5.67188V25.5851H7.00602V23.0926H7.87594C8.47992 23.0926 8.94117 23.0611 9.25969 22.9979C9.49406 22.9468 9.72469 22.8425 9.95156 22.6846C10.1784 22.5269 10.3655 22.3098 10.5127 22.0334C10.66 21.757 10.7336 21.4159 10.7336 21.0103C10.7335 20.4844 10.6058 20.0555 10.3504 19.7235ZM9.20781 21.5421C9.10719 21.6894 8.9682 21.7975 8.79086 21.8667C8.61352 21.9358 8.26203 21.9704 7.73617 21.9704H7.00602V20.0954H7.65055C8.13133 20.0954 8.45133 20.1104 8.61055 20.1404C8.82687 20.1795 9.0057 20.2771 9.14687 20.4334C9.28812 20.5896 9.35875 20.788 9.35875 21.0283C9.35883 21.2236 9.30844 21.3949 9.20781 21.5421Z" fill="#14A077"/>
<path d="M17.1473 20.7827C17.003 20.3605 16.7927 20.0037 16.5163 19.7122C16.2398 19.4207 15.9077 19.2179 15.5202 19.1037C15.2317 19.0196 14.8125 18.9775 14.2627 18.9775H11.8242V25.5851H14.3348C14.8276 25.5851 15.2212 25.5386 15.5156 25.4454C15.9093 25.3192 16.2218 25.1434 16.4531 24.918C16.7596 24.6205 16.9955 24.2314 17.1608 23.7507C17.296 23.357 17.3636 22.8882 17.3636 22.3444C17.3636 21.7254 17.2915 21.2049 17.1473 20.7827ZM15.8491 23.4961C15.759 23.7921 15.6426 24.0047 15.4998 24.1338C15.3571 24.263 15.1776 24.3546 14.9613 24.4087C14.796 24.4508 14.527 24.4718 14.1545 24.4718H13.1584V20.0954H13.7578C14.3016 20.0954 14.6668 20.1164 14.853 20.1585C15.1024 20.2125 15.3083 20.3162 15.4705 20.4695C15.6328 20.6228 15.759 20.8361 15.8491 21.1095C15.9393 21.3829 15.9844 21.775 15.9844 22.2859C15.9844 22.7967 15.9393 23.2 15.8491 23.4961Z" fill="#14A077"/>
<path d="M23.0337 20.0954V18.9775H18.5039V25.5851H19.838V22.7771H22.5965V21.6593H19.838V20.0954H23.0337Z" fill="#14A077"/>
</g>
<defs>
<clipPath id="clip0_297_10669">
<rect width="40" height="40" fill="white" transform="translate(0 0.200195)"/>
</clipPath>
</defs>
</svg>
