<svg width="40" height="41" viewBox="0 0 40 41" fill="none" xmlns="http://www.w3.org/2000/svg">
<path d="M7.75 4.2002C7.75 2.40527 9.20508 0.950195 11 0.950195H27C27.1212 0.950195 27.2375 0.998354 27.3232 1.08408L38.1161 11.877C38.2018 11.9627 38.25 12.079 38.25 12.2002V36.2002C38.25 37.9951 36.7949 39.4502 35 39.4502H11C9.20507 39.4502 7.75 37.9951 7.75 36.2002V4.2002Z" fill="white" stroke="#D0D5DD" stroke-width="1.5"/>
<path d="M27 0.700195V8.2002C27 10.4093 28.7909 12.2002 31 12.2002H38.5" stroke="#D0D5DD" stroke-width="1.5"/>
<rect x="1" y="18.2002" width="26" height="16" rx="2" fill="#D92D20"/>
<path d="M4.8323 30.2002V22.9275H7.70162C8.25323 22.9275 8.72316 23.0328 9.11142 23.2435C9.49967 23.4519 9.7956 23.7419 9.9992 24.1135C10.2052 24.4829 10.3082 24.909 10.3082 25.392C10.3082 25.8749 10.204 26.301 9.99565 26.6704C9.78732 27.0397 9.48547 27.3273 9.09011 27.5333C8.69712 27.7393 8.22127 27.8422 7.66255 27.8422H5.83372V26.61H7.41397C7.7099 26.61 7.95375 26.5591 8.14551 26.4573C8.33964 26.3531 8.48405 26.2099 8.57875 26.0276C8.67581 25.843 8.72434 25.6311 8.72434 25.392C8.72434 25.1505 8.67581 24.9398 8.57875 24.7599C8.48405 24.5776 8.33964 24.4367 8.14551 24.3373C7.95138 24.2355 7.70517 24.1846 7.40687 24.1846H6.36994V30.2002H4.8323ZM13.885 30.2002H11.3069V22.9275H13.9063C14.6379 22.9275 15.2676 23.0731 15.7955 23.3643C16.3235 23.6531 16.7295 24.0686 17.0136 24.6107C17.3 25.1528 17.4433 25.8015 17.4433 26.5567C17.4433 27.3143 17.3 27.9653 17.0136 28.5099C16.7295 29.0544 16.3211 29.4722 15.7884 29.7634C15.2581 30.0546 14.6237 30.2002 13.885 30.2002ZM12.8445 28.8827H13.8211C14.2757 28.8827 14.658 28.8022 14.9681 28.6412C15.2806 28.4779 15.515 28.2258 15.6713 27.8849C15.8299 27.5416 15.9092 27.0989 15.9092 26.5567C15.9092 26.0193 15.8299 25.5802 15.6713 25.2393C15.515 24.8983 15.2818 24.6474 14.9717 24.4864C14.6615 24.3254 14.2792 24.2449 13.8247 24.2449H12.8445V28.8827ZM18.5823 30.2002V22.9275H23.3976V24.1952H20.1199V25.9282H23.078V27.1959H20.1199V30.2002H18.5823Z" fill="white"/>
</svg>
