<svg width="64" height="64" viewBox="0 0 64 64" fill="none" xmlns="http://www.w3.org/2000/svg">
<path d="M62 59H3V13L13.764 10L17 3H46L49.991 10L62 13V59Z" fill="white"/>
<path d="M27.9996 17L27.3066 22.125L30.7506 23.47C31.6276 23.813 32.5976 23.835 33.4896 23.532L36.7326 22.432L35.9986 17L31.9986 11L27.9996 17Z" fill="#A8DF87"/>
<path d="M30.753 23.47L27.309 22.125L23.002 54L32.002 61L41.002 54L36.736 22.432L33.493 23.532C32.601 23.834 31.63 23.812 30.753 23.47Z" fill="#A8DF87"/>
<path d="M17 3L14 10L24 23L28 17L32 11L17 3Z" fill="white"/>
<path d="M32 11L36 17L40 23L50 10L46 3L32 11Z" fill="white"/>
<path d="M59 56L53 59L47 56V41H59V56Z" fill="white"/>
<path d="M44 37H61V41H45C44.448 41 44 40.552 44 40V37Z" fill="white"/>
<path d="M31.783 11L18 3H46L31.783 11Z" fill="white"/>
<path d="M61.2637 12.0347L50.6637 9.14375L46.8697 2.50375C46.5967 2.02475 45.9837 1.85575 45.5057 2.13175L31.9857 9.85775L21.0027 3.99975H36.0027C36.5557 3.99975 37.0027 3.55175 37.0027 2.99975C37.0027 2.44775 36.5557 1.99975 36.0027 1.99975H17.0027C16.9147 1.99975 16.7207 2.03875 16.6707 2.05675C16.4067 2.14975 16.1937 2.34875 16.0837 2.60575L13.2737 9.16175L2.73966 12.0347C2.20666 12.1807 1.89166 12.7297 2.03766 13.2627C2.15866 13.7077 2.56166 13.9998 3.00166 13.9998C3.08966 13.9998 3.17766 13.9878 3.26566 13.9637L13.6187 11.1398L23.2097 23.6087C23.3997 23.8557 23.6927 23.9988 24.0027 23.9988C24.0137 23.9988 24.0247 23.9988 24.0367 23.9988C24.3587 23.9878 24.6557 23.8218 24.8347 23.5538L26.4317 21.1588L22.0117 53.8648C21.9637 54.2178 22.1077 54.5698 22.3887 54.7878L31.3887 61.7878C31.5697 61.9277 31.7857 61.9978 32.0027 61.9978C32.2197 61.9978 32.4367 61.9277 32.6167 61.7878L41.6167 54.7878C41.8977 54.5687 42.0417 54.2178 41.9937 53.8648L37.5737 21.1588L39.1707 23.5538C39.3497 23.8218 39.6467 23.9878 39.9687 23.9988C39.9807 23.9988 39.9917 23.9988 40.0027 23.9988C40.3127 23.9988 40.6057 23.8547 40.7957 23.6087L50.3867 11.1398L60.7397 13.9637C60.8277 13.9878 60.9157 13.9998 61.0037 13.9998C61.4427 13.9998 61.8467 13.7077 61.9677 13.2627C62.1137 12.7297 61.7987 12.1798 61.2657 12.0347H61.2637ZM23.9437 21.2838L15.1517 9.85475L17.4917 4.39475L30.5567 11.3628L23.9437 21.2838ZM32.0017 59.7328L24.0697 53.5638L28.1297 23.5187L30.3897 24.4018C30.9727 24.6298 31.5897 24.7428 32.2077 24.7428C32.7497 24.7428 33.2927 24.6558 33.8127 24.4788L35.9057 23.7687L39.9317 53.5638L31.9997 59.7328H32.0017ZM35.6347 21.7488L33.1727 22.5837C32.5057 22.8107 31.7757 22.7948 31.1167 22.5378L28.4057 21.4788L28.9617 17.3617L32.0017 12.8018L35.0417 17.3617L35.6347 21.7488ZM40.0597 21.2838L33.4287 11.3368L45.6297 4.36375L48.8037 9.91775L40.0597 21.2838Z" fill="#231F20"/>
<path d="M52.9175 60C52.7625 60 52.6065 59.964 52.4655 59.892L46.5475 56.892C46.0555 56.642 45.8585 56.04 46.1085 55.548C46.3575 55.055 46.9615 54.858 47.4525 55.108L52.9245 57.882L58.0005 55.379V44.001C58.0005 43.449 58.4475 43.001 59.0005 43.001C59.5535 43.001 60.0005 43.449 60.0005 44.001V56.001C60.0005 56.382 59.7845 56.73 59.4425 56.898L53.3605 59.898C53.2205 59.967 53.0694 60.001 52.9184 60.001L52.9175 60Z" fill="#231F20"/>
<path d="M61 42H46C45.447 42 45 41.552 45 41C45 40.448 45.447 40 46 40H60V38H44C43.447 38 43 37.552 43 37C43 36.448 43.447 36 44 36H61C61.553 36 62 36.448 62 37V41C62 41.552 61.553 42 61 42Z" fill="#231F20"/>
<path d="M20 60H3C2.447 60 2 59.552 2 59V19C2 18.448 2.447 18 3 18C3.553 18 4 18.448 4 19V58H20C20.553 58 21 58.448 21 59C21 59.552 20.553 60 20 60Z" fill="#231F20"/>
</svg>
