<svg width="13" height="12" viewBox="0 0 13 12" fill="none" xmlns="http://www.w3.org/2000/svg">
<path d="M11.4238 4.25001L11.4238 0.750006M11.4238 0.750006H7.92382M11.4238 0.750006L6.17383 6M5.00716 0.75H3.72383C2.74374 0.75 2.25369 0.75 1.87934 0.940739C1.55006 1.10852 1.28235 1.37623 1.11457 1.70552C0.923828 2.07986 0.923828 2.56991 0.923828 3.55V8.45C0.923828 9.43009 0.923828 9.92014 1.11457 10.2945C1.28235 10.6238 1.55006 10.8915 1.87934 11.0593C2.25369 11.25 2.74374 11.25 3.72383 11.25H8.62383C9.60392 11.25 10.094 11.25 10.4683 11.0593C10.7976 10.8915 11.0653 10.6238 11.2331 10.2945C11.4238 9.92014 11.4238 9.43009 11.4238 8.45V7.16667" stroke="black" stroke-width="1.16667" stroke-linecap="round" stroke-linejoin="round"/>
</svg>
