<svg width="24" height="24" viewBox="0 0 24 24" fill="none" xmlns="http://www.w3.org/2000/svg">
<rect x="0.341818" y="0.341818" width="23.3164" height="23.3164" rx="2.05818" stroke="#ECF1F5" stroke-width="0.683636"/>
<path fill-rule="evenodd" clip-rule="evenodd" d="M9.45954 6.06543H15.1295C16.4141 6.06543 17.4556 7.03709 17.4556 8.2357V16.9833C17.4556 17.5826 16.9349 18.0684 16.2925 18.0684C16.0284 18.0684 15.7721 17.9845 15.5659 17.8306L12.2945 15.3885L9.0231 17.8306C8.52154 18.205 7.78963 18.1292 7.38833 17.6612C7.22332 17.4688 7.13342 17.2297 7.13342 16.9833V8.2357C7.13342 7.03709 8.17486 6.06543 9.45954 6.06543ZM9.45959 7.15088C8.81725 7.15088 8.29653 7.63671 8.29653 8.23602V16.9836L11.5679 14.5415C11.9927 14.2244 12.5964 14.2244 13.0212 14.5415L16.2926 16.9836V8.23602C16.2926 7.63671 15.7718 7.15088 15.1295 7.15088H9.45959Z" fill="#63656B"/>
</svg>
