<svg width="13" height="11" viewBox="0 0 13 11" fill="none" xmlns="http://www.w3.org/2000/svg">
<path fill-rule="evenodd" clip-rule="evenodd" d="M1.92836 8.57641C-0.154505 6.63342 -0.154505 3.48323 1.92836 1.54024C4.01122 -0.402738 7.38821 -0.402738 9.47107 1.54024C11.375 3.31629 11.5386 6.10102 9.96181 8.05039L12.0661 10.0134C12.6151 10.5255 11.7917 11.2936 11.2427 10.7816L11.2427 10.7816L9.16345 8.84199C7.06797 10.5149 3.91155 10.4264 1.92836 8.57641ZM8.64766 2.30801C7.01957 0.789258 4.37992 0.789258 2.75183 2.30801C1.12374 3.82676 1.12374 6.28914 2.75183 7.80789C4.37992 9.32664 7.01957 9.32664 8.64766 7.80789C10.2758 6.28914 10.2758 3.82676 8.64766 2.30801Z" fill="#E0BA5B"/>
</svg>
