<svg width="25" height="24" viewBox="0 0 25 24" fill="none" xmlns="http://www.w3.org/2000/svg">
<rect x="0.742087" y="0.341818" width="23.3164" height="23.3164" rx="2.05818" stroke="#ECF1F5" stroke-width="0.683636"/>
<path d="M8.6355 6.66692H11.1181C11.4149 6.66692 11.6555 6.90756 11.6555 7.2044C11.6555 7.4765 11.4533 7.70138 11.191 7.73697L11.1181 7.74187H8.6355C7.78208 7.74187 7.08352 8.40488 7.02679 9.2439L7.02307 9.3543V16.1623C7.02307 17.0157 7.68607 17.7143 8.5251 17.771L8.6355 17.7748H15.444C16.2975 17.7748 16.996 17.1117 17.0528 16.2727L17.0565 16.1623V15.8056C17.0565 15.5088 17.2971 15.2681 17.5939 15.2681C17.8661 15.2681 18.0909 15.4703 18.1265 15.7327L18.1314 15.8056V16.1623C18.1314 17.5986 17.0046 18.7718 15.5868 18.846L15.444 18.8497H8.6355C7.19918 18.8497 6.02604 17.7229 5.95185 16.305L5.94812 16.1623V9.3543C5.94812 7.91798 7.07493 6.74484 8.49277 6.67065L8.6355 6.66692H11.1181H8.6355ZM14.1923 8.47274V6.48777C14.1923 6.04061 14.6988 5.79976 15.0429 6.05048L15.1018 6.09988L19.3977 10.2205C19.5982 10.4128 19.6165 10.7217 19.4525 10.9352L19.3978 10.9962L15.1019 15.1182C14.7792 15.4278 14.2547 15.229 14.1974 14.8071L14.1923 14.7304V12.7773L13.9461 12.7989C12.2264 12.9783 10.5781 13.7529 8.99091 15.1356C8.6189 15.4597 8.04335 15.1533 8.10453 14.6637C8.58094 10.8516 10.5745 8.75039 13.9777 8.48682L14.1923 8.47274V6.48777V8.47274ZM15.2672 7.74807V8.99598C15.2672 9.29282 15.0266 9.53346 14.7297 9.53346C11.9539 9.53346 10.2336 10.7346 9.49025 13.2293L9.43359 13.4289L9.68598 13.2592C11.2887 12.2117 12.9724 11.6834 14.7297 11.6834C15.0019 11.6834 15.2267 11.8856 15.2623 12.1479L15.2672 12.2208V13.4698L18.2493 10.6085L15.2672 7.74807Z" fill="#63656B"/>
</svg>
