<svg width="22" height="23" viewBox="0 0 22 23" fill="none" xmlns="http://www.w3.org/2000/svg">
<path d="M14.6365 5.74574V5.01847C14.6365 4.00019 14.6365 3.49105 14.4384 3.10212C14.2641 2.76001 13.9859 2.48186 13.6438 2.30754C13.2549 2.10938 12.7457 2.10938 11.7275 2.10938H10.2729C9.25463 2.10938 8.74549 2.10938 8.35656 2.30754C8.01445 2.48186 7.7363 2.76001 7.56198 3.10212C7.36381 3.49105 7.36381 4.00019 7.36381 5.01847V5.74574M9.182 10.7457V15.2912M12.8184 10.7457V15.2912M2.81836 5.74574H19.182M17.3638 5.74574V15.9276C17.3638 17.455 17.3638 18.2187 17.0666 18.8021C16.8051 19.3152 16.3879 19.7325 15.8747 19.9939C15.2913 20.2912 14.5276 20.2912 13.0002 20.2912H9.00018C7.47276 20.2912 6.70905 20.2912 6.12566 19.9939C5.61249 19.7325 5.19527 19.3152 4.9338 18.8021C4.63654 18.2187 4.63654 17.455 4.63654 15.9276V5.74574" stroke="#D92D20" stroke-width="1.81818" stroke-linecap="round" stroke-linejoin="round"/>
</svg>
